<?xml version="1.0" encoding="UTF-8"?>
<svg id="Layer_1" data-name="Layer 1" xmlns="http://www.w3.org/2000/svg" xmlns:xlink="http://www.w3.org/1999/xlink" viewBox="0 0 1030 1062">
  <defs>
    <style>
      .cls-1 {
        stroke-width: 1.4px;
      }

      .cls-1, .cls-2, .cls-3, .cls-4, .cls-5, .cls-6 {
        fill: none;
      }

      .cls-1, .cls-2, .cls-5, .cls-6 {
        stroke-linecap: round;
        stroke-linejoin: round;
      }

      .cls-1, .cls-3, .cls-5, .cls-7, .cls-6 {
        stroke: #fff;
      }

      .cls-2 {
        stroke: #4c36df;
      }

      .cls-8 {
        fill: url(#linear-gradient);
        opacity: .2;
      }

      .cls-8, .cls-4, .cls-9, .cls-10, .cls-11, .cls-12, .cls-13, .cls-14, .cls-15, .cls-16, .cls-17, .cls-18, .cls-19, .cls-20, .cls-21, .cls-22, .cls-23, .cls-24, .cls-25, .cls-26, .cls-27, .cls-28, .cls-29, .cls-30, .cls-31, .cls-32, .cls-33, .cls-34, .cls-35, .cls-36, .cls-37, .cls-38, .cls-39, .cls-40, .cls-41, .cls-42, .cls-43, .cls-44, .cls-45, .cls-46, .cls-47, .cls-48, .cls-49, .cls-50, .cls-51 {
        stroke-width: 0px;
      }

      .cls-52 {
        filter: url(#drop-shadow-11);
      }

      .cls-52, .cls-53, .cls-54, .cls-55, .cls-56 {
        opacity: .7;
      }

      .cls-53 {
        filter: url(#drop-shadow-12);
      }

      .cls-3, .cls-7 {
        stroke-miterlimit: 10;
      }

      .cls-3, .cls-6 {
        stroke-width: 3px;
      }

      .cls-5 {
        stroke-width: 3.8355135px;
      }

      .cls-57 {
        clip-path: url(#clippath-4);
      }

      .cls-58 {
        filter: url(#drop-shadow-9);
      }

      .cls-59 {
        filter: url(#drop-shadow-5);
      }

      .cls-60 {
        filter: url(#drop-shadow-7);
      }

      .cls-61 {
        filter: url(#drop-shadow-6);
      }

      .cls-62 {
        filter: url(#drop-shadow-8);
      }

      .cls-9, .cls-10 {
        opacity: .5;
      }

      .cls-9, .cls-7, .cls-39 {
        fill: #fff;
      }

      .cls-10 {
        fill: #b49078;
      }

      .cls-54 {
        filter: url(#drop-shadow-3);
      }

      .cls-55 {
        filter: url(#drop-shadow-4);
      }

      .cls-63, .cls-7 {
        opacity: .4;
      }

      .cls-64 {
        filter: url(#drop-shadow-10);
      }

      .cls-12 {
        fill: #f9c4a4;
      }

      .cls-13 {
        fill: #4ed3e5;
      }

      .cls-14 {
        fill: #966dff;
      }

      .cls-15 {
        fill: #a1d1ff;
      }

      .cls-16 {
        fill: #a2e250;
      }

      .cls-17 {
        fill: #3985fd;
      }

      .cls-18 {
        fill: #1a1a1a;
      }

      .cls-19 {
        fill: #420909;
      }

      .cls-20 {
        fill: #153351;
      }

      .cls-21 {
        fill: #0766fc;
      }

      .cls-22 {
        fill: #cbcbcb;
      }

      .cls-23 {
        fill: #c8e3dd;
      }

      .cls-24 {
        fill: #dceaf8;
      }

      .cls-25 {
        fill: #cbdafc;
      }

      .cls-26 {
        fill: #d7e1db;
      }

      .cls-27 {
        fill: #d5d1d1;
      }

      .cls-28 {
        fill: #d9d9d9;
      }

      .cls-29 {
        fill: #a582ff;
      }

      .cls-30 {
        fill: #ae9eff;
      }

      .cls-31 {
        fill: #cceffc;
      }

      .cls-32 {
        fill: #a8e1b1;
      }

      .cls-33 {
        fill: #b5cbfd;
      }

      .cls-34 {
        fill: #2fd586;
      }

      .cls-35 {
        fill: #fbc734;
      }

      .cls-36 {
        fill: #f66;
      }

      .cls-37 {
        fill: #ff6a6c;
      }

      .cls-38 {
        fill: #ffd570;
      }

      .cls-40 {
        fill: #fdc4ba;
      }

      .cls-41 {
        fill: #f99;
      }

      .cls-42 {
        fill: #ffbf9e;
      }

      .cls-43 {
        fill: #e5f8ea;
      }

      .cls-44 {
        fill: #ecc3a8;
      }

      .cls-45 {
        fill: #e6e6e6;
      }

      .cls-46 {
        fill: #f7931e;
      }

      .cls-47 {
        fill: #00b0f0;
      }

      .cls-48 {
        fill: #00a6ff;
      }

      .cls-49 {
        fill: #67a0ff;
      }

      .cls-50 {
        fill: #692fff;
      }

      .cls-51 {
        fill: #008bd1;
      }
    </style>
    <filter id="drop-shadow-3" filterUnits="userSpaceOnUse">
      <feOffset dx="0" dy="5"/>
      <feGaussianBlur result="blur" stdDeviation="10"/>
      <feFlood flood-color="#426070" flood-opacity=".05"/>
      <feComposite in2="blur" operator="in"/>
      <feComposite in="SourceGraphic"/>
    </filter>
    <filter id="drop-shadow-4" filterUnits="userSpaceOnUse">
      <feOffset dx="0" dy="5"/>
      <feGaussianBlur result="blur-2" stdDeviation="10"/>
      <feFlood flood-color="#426070" flood-opacity=".1"/>
      <feComposite in2="blur-2" operator="in"/>
      <feComposite in="SourceGraphic"/>
    </filter>
    <filter id="drop-shadow-5" filterUnits="userSpaceOnUse">
      <feOffset dx="0" dy="5"/>
      <feGaussianBlur result="blur-3" stdDeviation="18"/>
      <feFlood flood-color="#426070" flood-opacity=".14"/>
      <feComposite in2="blur-3" operator="in"/>
      <feComposite in="SourceGraphic"/>
    </filter>
    <linearGradient id="linear-gradient" x1="710.3431316" y1="-1382.4366549" x2="650.8571626" y2="-1382.4366549" gradientTransform="translate(191.351492 1620.569576)" gradientUnits="userSpaceOnUse">
      <stop offset="0" stop-color="#f5f6f8" stop-opacity="0"/>
      <stop offset=".0525506" stop-color="#d3ddea" stop-opacity=".1902718"/>
      <stop offset=".1231179" stop-color="#adc2da" stop-opacity=".4049474"/>
      <stop offset=".1994658" stop-color="#8cabcc" stop-opacity=".5896963"/>
      <stop offset=".281426" stop-color="#7298c1" stop-opacity=".7398935"/>
      <stop offset=".3711349" stop-color="#5d89b9" stop-opacity=".8558171"/>
      <stop offset=".4725812" stop-color="#4f7eb3" stop-opacity=".9376546"/>
      <stop offset=".5955523" stop-color="#4678b0" stop-opacity=".9855621"/>
      <stop offset=".8" stop-color="#4477af"/>
    </linearGradient>
    <filter id="drop-shadow-6" filterUnits="userSpaceOnUse">
      <feOffset dx="0" dy="5"/>
      <feGaussianBlur result="blur-4" stdDeviation="20"/>
      <feFlood flood-color="#426070" flood-opacity=".2"/>
      <feComposite in2="blur-4" operator="in"/>
      <feComposite in="SourceGraphic"/>
    </filter>
    <filter id="drop-shadow-7" filterUnits="userSpaceOnUse">
      <feOffset dx="0" dy="5"/>
      <feGaussianBlur result="blur-5" stdDeviation="20"/>
      <feFlood flood-color="#426070" flood-opacity=".2"/>
      <feComposite in2="blur-5" operator="in"/>
      <feComposite in="SourceGraphic"/>
    </filter>
    <filter id="drop-shadow-8" filterUnits="userSpaceOnUse">
      <feOffset dx="0" dy="5"/>
      <feGaussianBlur result="blur-6" stdDeviation="18"/>
      <feFlood flood-color="#426070" flood-opacity=".2"/>
      <feComposite in2="blur-6" operator="in"/>
      <feComposite in="SourceGraphic"/>
    </filter>
    <clipPath id="clippath-4">
      <path class="cls-4" d="M968.2902453,534.6050966c-.042092-.5739397-.0959236-1.0537748-.1607409-1.3241403-.8278554-3.4525429-3.1553118-6.1978064-5.4061158-8.8526746-2.0250945-2.3886727-4.1192089-4.8586712-5.0139934-7.7730692-.5630631-1.8336428-.7094548-3.7217159-.435254-5.6118118.1227107-.8457894.3287968-1.6691173.6081552-2.4583564,7.2776913,6.8561494,12.762687,8.1485513,16.5532446,7.9374276,2.2685168-.1263454,5.482521-.8994929,10.2575194-.1404259,1.5111402.2402219,2.8922064.5784166,4.132136.9606889-.4266268,1.5989356-1.151595,3.0822796-2.1606728,4.4180457-1.8376669,2.4325933-4.6502354,4.0374116-7.3701933,5.5894039-3.023082,1.7249402-6.149093,3.5086106-8.1078725,6.4697949-.1330391.2011379-.3364795.6225475-.5669925,1.1460705-.9772307,2.2193745-1.67671,4.550902-2.0978044,6.9390479l-1.5430509,8.7510802c-.1404732.7966632-.0343523,1.61807.3075514,2.351204,3.4968858,7.4982135,12.185282,9.7049873,13.4306398,10.0007895l-22.9709679-1.9480686-8.63994-2.5470084c1.2720684.1480512,10.2827139-.0110149,16.1339183-5.8762278.5703785-.5717349.9501153-1.3060734,1.090354-2.1014069l1.6037487-9.0953148c.397659-2.2552372.5238589-4.5511647.3563312-6.8350483Z"/>
    </clipPath>
    <filter id="drop-shadow-9" filterUnits="userSpaceOnUse">
      <feOffset dx="0" dy="5"/>
      <feGaussianBlur result="blur-7" stdDeviation="20"/>
      <feFlood flood-color="#426070" flood-opacity=".2"/>
      <feComposite in2="blur-7" operator="in"/>
      <feComposite in="SourceGraphic"/>
    </filter>
    <filter id="drop-shadow-10" filterUnits="userSpaceOnUse">
      <feOffset dx="0" dy="5"/>
      <feGaussianBlur result="blur-8" stdDeviation="20"/>
      <feFlood flood-color="#426070" flood-opacity=".2"/>
      <feComposite in2="blur-8" operator="in"/>
      <feComposite in="SourceGraphic"/>
    </filter>
    <filter id="drop-shadow-11" filterUnits="userSpaceOnUse">
      <feOffset dx="0" dy="5"/>
      <feGaussianBlur result="blur-9" stdDeviation="10"/>
      <feFlood flood-color="#426070" flood-opacity=".1"/>
      <feComposite in2="blur-9" operator="in"/>
      <feComposite in="SourceGraphic"/>
    </filter>
    <filter id="drop-shadow-12" filterUnits="userSpaceOnUse">
      <feOffset dx="0" dy="5"/>
      <feGaussianBlur result="blur-10" stdDeviation="10"/>
      <feFlood flood-color="#426070" flood-opacity=".1"/>
      <feComposite in2="blur-10" operator="in"/>
      <feComposite in="SourceGraphic"/>
    </filter>
  </defs>
  <g class="cls-54">
    <path class="cls-39" d="M141.3896484,246.8242188h11.9296875c7.21875,0,12.8671875,2.90625,12.8671875,10.8046875,0,8.6953125-6.8671875,10.5703125-14.203125,10.5703125h-3.9375v12.9375h-6.65625v-34.3125ZM153.2724609,263.4179688c4.1015625,0,6.421875-1.6875,6.421875-5.8359375,0-4.3125-2.53125-5.71875-6.421875-5.71875h-5.2265625v11.5546875h5.2265625Z"/>
    <path class="cls-39" d="M170.8271484,245.8632812l6-2.6015625v37.875h-6v-35.2734375Z"/>
    <path class="cls-39" d="M197.9677734,278.0664062c-1.8984375,2.53125-4.6875,3.5390625-7.78125,3.5390625-4.7109375,0-8.4140625-2.390625-8.4140625-7.3125,0-6.9609375,7.359375-8.0625,13.1953125-8.0625h2.953125v-.3984375c0-3.5859375-.84375-5.859375-4.8984375-5.859375-2.4375,0-4.6875,1.265625-5.578125,3.5859375l-4.6640625-2.015625c1.6875-4.4296875,6.375-6.046875,10.8515625-6.046875,5.9296875,0,10.2421875,2.859375,10.2421875,9.234375v16.40625h-5.90625v-3.0703125ZM194.8974609,269.9101562c-2.765625,0-7.171875.328125-7.171875,4.125,0,2.4140625,1.7578125,3.3046875,4.0078125,3.3046875,3.046875,0,6.1875-1.59375,6.1875-4.9921875v-2.4375h-3.0234375Z"/>
    <path class="cls-39" d="M210.2021484,256.0351562h6v3.984375c1.6171875-3.09375,4.9921875-4.5234375,8.484375-4.5234375,6.0234375,0,8.7421875,4.2421875,8.7421875,9.9375v15.703125h-6.09375v-15.1171875c0-3.515625-1.5703125-5.578125-5.1328125-5.578125-3.7734375,0-6,2.34375-6,5.953125v14.7421875h-6v-25.1015625Z"/>
    <path class="cls-39" d="M239.7333984,256.0351562h6v3.984375c1.6171875-3.09375,4.9921875-4.5234375,8.484375-4.5234375,6.0234375,0,8.7421875,4.2421875,8.7421875,9.9375v15.703125h-6.09375v-15.1171875c0-3.515625-1.5703125-5.578125-5.1328125-5.578125-3.7734375,0-6,2.34375-6,5.953125v14.7421875h-6v-25.1015625Z"/>
    <path class="cls-39" d="M272.4521484,245.4179688c1.9453125,0,3.4921875,1.4296875,3.4921875,3.421875,0,1.96875-1.5,3.3984375-3.46875,3.3984375-1.9453125,0-3.5859375-1.453125-3.5859375-3.421875,0-1.9921875,1.6171875-3.3984375,3.5625-3.3984375ZM269.4287109,256.0820312h6v25.0546875h-6v-25.0546875Z"/>
    <path class="cls-39" d="M282.2255859,256.0351562h6v3.984375c1.6171875-3.09375,4.9921875-4.5234375,8.484375-4.5234375,6.0234375,0,8.7421875,4.2421875,8.7421875,9.9375v15.703125h-6.09375v-15.1171875c0-3.515625-1.5703125-5.578125-5.1328125-5.578125-3.7734375,0-6,2.34375-6,5.953125v14.7421875h-6v-25.1015625Z"/>
    <path class="cls-39" d="M315.6240234,282.2382812c1.2421875,2.7890625,4.1484375,3.609375,6.9375,3.609375,4.453125,0,7.1484375-2.1328125,7.1484375-6.6796875v-3.75c-1.7109375,2.90625-5.0625,4.7109375-8.4140625,4.7109375-7.1015625,0-11.2265625-5.578125-11.2265625-12.1171875,0-6.75,4.40625-12.515625,11.3671875-12.515625,3.3984375,0,6.515625,1.3828125,8.2734375,4.3828125v-3.84375h6.0234375v23.2265625c0,7.8984375-5.90625,11.0859375-13.171875,11.0859375-4.6640625,0-9.65625-1.3125-11.671875-6.046875l4.734375-2.0625ZM329.9443359,267.6835938c0-4.2890625-2.3203125-7.5703125-6.8671875-7.5703125-4.8046875,0-6.84375,3.65625-6.84375,8.015625,0,3.9140625,2.4609375,7.3828125,6.6328125,7.3828125,4.6875,0,7.078125-3.46875,7.078125-7.828125Z"/>
  </g>
  <g class="cls-55">
    <path class="cls-39" d="M875.8984375,353.5839844h-8.0078125v-4.3164062h21.5429688v4.3164062h-7.9882812v24.2773438h-5.546875v-24.2773438Z"/>
    <path class="cls-39" d="M889.0234375,356.9433594h5v3.9257812c1.40625-2.8710938,3.6914062-4.2382812,6.875-4.2382812v4.6289062c-4.0429688,0-6.875,1.328125-6.875,5.8007812v10.8007812h-5v-20.9179688Z"/>
    <path class="cls-39" d="M915.9765625,375.3027344c-1.5820312,2.109375-3.90625,2.9492188-6.484375,2.9492188-3.9257812,0-7.0117188-1.9921875-7.0117188-6.09375,0-5.8007812,6.1328125-6.71875,10.9960938-6.71875h2.4609375v-.3320312c0-2.9882812-.703125-4.8828125-4.0820312-4.8828125-2.03125,0-3.90625,1.0546875-4.6484375,2.9882812l-3.8867188-1.6796875c1.40625-3.6914062,5.3125-5.0390625,9.0429688-5.0390625,4.9414062,0,8.5351562,2.3828125,8.5351562,7.6953125v13.671875h-4.921875v-2.5585938ZM913.4179688,368.5058594c-2.3046875,0-5.9765625.2734375-5.9765625,3.4375,0,2.0117188,1.4648438,2.7539062,3.3398438,2.7539062,2.5390625,0,5.15625-1.328125,5.15625-4.1601562v-2.03125h-2.5195312Z"/>
    <path class="cls-39" d="M945.0390625,371.9433594c-1.3867188,4.375-5.2929688,6.3085938-9.6679688,6.3085938-6.640625,0-10.6054688-4.453125-10.6054688-10.9179688,0-6.2109375,4.4335938-10.8398438,10.7226562-10.8398438,4.2382812,0,7.890625,1.7773438,9.4335938,5.8789062l-4.0429688,1.7773438c-.8398438-2.34375-2.8710938-3.6914062-5.390625-3.6914062-4.0820312,0-5.5859375,3.5351562-5.5859375,7.1289062,0,3.6914062,1.6210938,6.875,5.6640625,6.875,2.8710938,0,4.8046875-1.5820312,5.6640625-4.1992188l3.8085938,1.6796875Z"/>
    <path class="cls-39" d="M949.0039062,347.4707031h5v18.59375l7.578125-9.1210938h5.4882812l-8.3007812,9.5898438,8.9257812,11.328125h-5.7617188l-7.9296875-10.1953125v10.1953125h-5v-30.390625Z"/>
    <path class="cls-39" d="M973.4570312,348.0957031c1.6210938,0,2.9101562,1.1914062,2.9101562,2.8515625,0,1.640625-1.25,2.8320312-2.890625,2.8320312-1.6210938,0-2.9882812-1.2109375-2.9882812-2.8515625,0-1.6601562,1.3476562-2.8320312,2.96875-2.8320312ZM970.9375,356.9824219h5v20.8789062h-5v-20.8789062Z"/>
    <path class="cls-39" d="M981.6015625,356.9433594h5v3.3203125c1.3476562-2.578125,4.1601562-3.7695312,7.0703125-3.7695312,5.0195312,0,7.2851562,3.5351562,7.2851562,8.28125v13.0859375h-5.078125v-12.5976562c0-2.9296875-1.3085938-4.6484375-4.2773438-4.6484375-3.1445312,0-5,1.953125-5,4.9609375v12.2851562h-5v-20.9179688Z"/>
    <path class="cls-39" d="M1009.4335938,378.7792969c1.0351562,2.3242188,3.4570312,3.0078125,5.78125,3.0078125,3.7109375,0,5.9570312-1.7773438,5.9570312-5.5664062v-3.125c-1.4257812,2.421875-4.21875,3.9257812-7.0117188,3.9257812-5.9179688,0-9.3554688-4.6484375-9.3554688-10.0976562,0-5.625,3.671875-10.4296875,9.4726562-10.4296875,2.8320312,0,5.4296875,1.1523438,6.8945312,3.6523438v-3.203125h5.0195312v19.3554688c0,6.5820312-4.921875,9.2382812-10.9765625,9.2382812-3.8867188,0-8.046875-1.09375-9.7265625-5.0390625l3.9453125-1.71875ZM1021.3671875,366.6503906c0-3.5742188-1.9335938-6.3085938-5.7226562-6.3085938-4.0039062,0-5.703125,3.046875-5.703125,6.6796875,0,3.2617188,2.0507812,6.1523438,5.5273438,6.1523438,3.90625,0,5.8984375-2.890625,5.8984375-6.5234375Z"/>
  </g>
  <path class="cls-21" d="M100.0800781,522.2373047c-3.7041016-.2470703-7.6357422-1.5898438-11.6835938-3.9902344l1.0195312-1.7207031c3.7763672,2.2392578,7.4091797,3.4892578,10.796875,3.7148438l-.1328125,1.9960938ZM78.7421875,510.796875c-2.6757812-2.5117188-5.4619141-5.4863281-8.2792969-8.8398438l1.53125-1.2871094c2.7675781,3.2939453,5.4980469,6.2099609,8.1171875,8.6679688l-1.3691406,1.4589844ZM63.0693359,492.4160156c-.3642578-.5029297-.7265625-1.0107422-1.0888672-1.5234375-1.9501953-2.7568359-3.8554688-5.6083984-5.6611328-8.4736328l1.6914062-1.0664062c1.7880859,2.8349609,3.6728516,5.65625,5.6025391,8.3857422.3583984.5068359.7167969,1.0087891,1.0751953,1.5039062l-1.6191406,1.1738281ZM50.2128906,472.0244141c-1.9130859-3.4960938-3.75-7.1123047-5.4619141-10.7490234l1.8105469-.8515625c1.6933594,3.5996094,3.5126953,7.1796875,5.4052734,10.6416016l-1.7539062.9589844ZM39.9414062,450.2207031c-1.4833984-3.6992188-2.8837891-7.5058594-4.1640625-11.3144531l1.8964844-.6367188c1.2675781,3.7724609,2.6552734,7.5429688,4.1240234,11.2070312l-1.8564453.7441406ZM32.2558594,427.3798828c-1.0556641-3.8193359-2.0302734-7.7558594-2.8964844-11.7001953l1.953125-.4296875c.8583984,3.9101562,1.8242188,7.8115234,2.8710938,11.5966797l-1.9277344.5332031ZM27.0791016,403.84375c-.6523438-3.921875-1.2167969-7.9365234-1.6787109-11.9326172l1.9863281-.2304688c.4580078,3.9638672,1.0185547,7.9453125,1.6650391,11.8349609l-1.9726562.328125ZM24.3076172,379.9111328c-.265625-3.96875-.4404297-8.0185547-.5195312-12.0371094l2-.0390625c.078125,3.9873047.2519531,8.0048828.515625,11.9433594l-1.9960938.1328125ZM529.0644531,371.2548828l-1.9589844-.4042969c.8095703-3.9199219,1.546875-7.875,2.1914062-11.7568359l1.9726562.328125c-.6484375,3.9072266-1.390625,7.8886719-2.2050781,11.8330078ZM25.8261719,355.8789062l-2-.0527344c.1044922-3.9873047.3007812-8.0351562.5849609-12.0322266l1.9941406.140625c-.28125,3.9677734-.4755859,7.9863281-.5791016,11.9443359ZM532.9902344,347.5039062l-1.984375-.2441406c.4892578-3.9882812.890625-7.9892578,1.1923828-11.8925781l1.9941406.1542969c-.3046875,3.9326172-.7089844,7.9638672-1.2021484,11.9824219ZM27.5136719,332.0302734l-1.9863281-.2304688c.4570312-3.9589844,1.0097656-7.9736328,1.6416016-11.9306641l1.9746094.3144531c-.6269531,3.9296875-1.1757812,7.9150391-1.6298828,11.8466797ZM534.8378906,323.4931641l-2-.0585938c.0683594-2.3300781.1025391-4.6640625.1025391-6.9375,0-1.6660156-.0175781-3.3349609-.0546875-5.0048828l2-.0449219c.0371094,1.6855469.0546875,3.3681641.0546875,5.0498047,0,2.2919922-.0341797,4.6464844-.1025391,6.9960938ZM31.2822266,308.4189453l-1.9589844-.4003906c.8017578-3.9238281,1.6982422-7.875,2.6630859-11.7451172l1.9414062.484375c-.9589844,3.8417969-1.8486328,7.765625-2.6455078,11.6611328ZM532.3056641,299.5673828c-.3027344-3.9902344-.7207031-7.9833984-1.2421875-11.8701172l1.9824219-.265625c.5263672,3.9238281.9482422,7.9560547,1.2539062,11.9833984l-1.9941406.1523438ZM37.0673828,285.2216797l-1.9179688-.5664062c1.1328125-3.8330078,2.3652344-7.6923828,3.6611328-11.4707031l1.8925781.6484375c-1.2880859,3.7519531-2.5107422,7.5839844-3.6357422,11.3886719ZM529.1289062,275.9257812c-.7646484-3.9101562-1.6572266-7.8222656-2.6513672-11.6279297l1.9355469-.5058594c1.0048828,3.8466797,1.90625,7.7998047,2.6787109,11.7490234l-1.9628906.3847656ZM44.8271484,262.6123047l-1.8613281-.7304688c1.4628906-3.7265625,3.0263672-7.4638672,4.6464844-11.1074219l1.828125.8125c-1.609375,3.6171875-3.1611328,7.3271484-4.6132812,11.0253906ZM523.09375,252.8564453c-1.2470703-3.7617188-2.6337891-7.5283203-4.1220703-11.1943359l1.8535156-.7519531c1.5039062,3.7060547,2.90625,7.5146484,4.1669922,11.3173828l-1.8984375.6289062ZM54.5410156,240.7802734l-1.7890625-.8945312c1.7929688-3.5859375,3.6865234-7.1669922,5.6298828-10.6445312l1.7460938.9765625c-1.9287109,3.4492188-3.8076172,7.0039062-5.5869141,10.5625ZM514.1181641,230.7636719c-1.7246094-3.5507812-3.5966797-7.1005859-5.5644531-10.5517578l1.7382812-.9902344c1.9892578,3.4882812,3.8818359,7.078125,5.625,10.6689453l-1.7988281.8730469ZM66.2011719,219.9306641l-1.6972656-1.0566406c2.1210938-3.40625,4.3466797-6.7919922,6.6162109-10.0634766l1.6435547,1.1386719c-2.2509766,3.2460938-4.4580078,6.6035156-6.5625,9.9814453ZM502.3076172,210.0478516c-2.1748047-3.2958984-4.4921875-6.5732422-6.8857422-9.7421875l1.5957031-1.2050781c2.4189453,3.2021484,4.7607422,6.5146484,6.9599609,9.8457031l-1.6699219,1.1015625ZM79.8134766,200.3076172l-1.5839844-1.2207031c2.4541016-3.1816406,5.0117188-6.3251953,7.6035156-9.3427734l1.5175781,1.3027344c-2.5693359,2.9912109-5.1054688,6.1074219-7.5371094,9.2607422ZM487.9404297,191.0078125c-2.5556641-2.9853516-5.2558594-5.9589844-8.0253906-8.8369141l1.4414062-1.3867188c2.7958984,2.90625,5.5224609,5.9082031,8.1035156,8.9228516l-1.5195312,1.3007812ZM95.3730469,182.2060547l-1.4433594-1.3847656c2.7919922-2.9111328,5.6796875-5.7568359,8.5820312-8.4589844l1.3632812,1.4648438c-2.8759766,2.6757812-5.7363281,5.4951172-8.5019531,8.3789062ZM471.3994141,173.8017578c-1.1445312-1.0654297-2.3085938-2.1269531-3.4902344-3.1806641-1.7880859-1.59375-3.6201172-3.1953125-5.4482422-4.7597656l1.3007812-1.5195312c1.8378906,1.5732422,3.6806641,3.1835938,5.4785156,4.7871094,1.1923828,1.0625,2.3662109,2.1328125,3.5214844,3.2080078l-1.3623047,1.4648438ZM112.8466797,165.9570312l-1.2734375-1.5410156c.5869141-.4853516,1.1767578-.9667969,1.7695312-1.4443359,2.53125-2.0410156,5.1162109-4.0625,7.6826172-6.0087891l1.2089844,1.59375c-2.5507812,1.9345703-5.1201172,3.9433594-7.6357422,5.9716797-.5869141.4736328-1.1708984.9492188-1.7519531,1.4287109ZM453.2373047,158.2441406c-3.1240234-2.4882812-6.3173828-4.9365234-9.4921875-7.2783203l1.1875-1.609375c3.1943359,2.3564453,6.4072266,4.8203125,9.5507812,7.3232422l-1.2460938,1.5644531ZM131.8955078,151.5029297l-1.1484375-1.6367188c3.2646484-2.2919922,6.6220703-4.5566406,9.9794922-6.7304688l1.0878906,1.6777344c-3.3369141,2.1621094-6.6738281,4.4121094-9.9189453,6.6894531ZM433.9873047,144.0546875c-3.3046875-2.2470703-6.6767578-4.4404297-10.0214844-6.5205078l1.0566406-1.6992188c3.3671875,2.0947266,6.7617188,4.3037109,10.0898438,6.5654297l-1.125,1.6542969ZM151.9755859,138.5029297l-1.0224609-1.71875c3.4550781-2.0546875,6.9746094-4.0585938,10.4619141-5.9560547l.9550781,1.7578125c-3.4638672,1.8847656-6.9619141,3.875-10.3945312,5.9169922ZM413.6855469,131.4316406c-3.4765625-1.9658203-7.0195312-3.8691406-10.5302734-5.6582031l.9082031-1.78125c3.5361328,1.8007812,7.1044922,3.71875,10.6064453,5.6992188l-.984375,1.7402344ZM172.9863281,127.0771484l-.8867188-1.7929688c3.6035156-1.7802734,7.2695312-3.5009766,10.8994141-5.1171875l.8125,1.8271484c-3.6044922,1.6054688-7.2470703,3.3154297-10.8251953,5.0830078ZM392.3876953,120.5859375c-3.6337891-1.6503906-7.3320312-3.2285156-10.9912109-4.6904297l.7421875-1.8574219c3.6875,1.4726562,7.4150391,3.0634766,11.0771484,4.7275391l-.828125,1.8203125ZM194.8349609,117.3564453l-.7382812-1.859375c3.7353516-1.4814453,7.53125-2.8964844,11.2832031-4.2050781l.6582031,1.8886719c-3.7246094,1.2998047-7.4941406,2.7041016-11.203125,4.1757812ZM370.1982422,111.7236328c-3.7617188-1.3007812-7.5917969-2.5224609-11.3837891-3.6318359l.5625-1.9199219c3.8222656,1.1181641,7.6826172,2.3505859,11.4755859,3.6611328l-.6542969,1.890625ZM217.4072266,109.4863281l-.5761719-1.9150391c3.8486328-1.1591797,7.7529297-2.2421875,11.6044922-3.2197266l.4921875,1.9394531c-3.8232422.9697266-7.6992188,2.0439453-11.5205078,3.1953125ZM347.2685547,105.0205078c-3.8662109-.9277344-7.796875-1.7685547-11.6826172-2.5l.3691406-1.9648438c3.9189453.7363281,7.8818359,1.5839844,11.7802734,2.5195312l-.4667969,1.9453125ZM240.578125,103.6132812l-.4042969-1.9589844c3.9267578-.8095703,7.9140625-1.5361328,11.8505859-2.1582031l.3125,1.9746094c-3.90625.6181641-7.8623047,1.3388672-11.7587891,2.1425781ZM323.7880859,100.6035156c-3.921875-.5380859-7.9179688-.9833984-11.8769531-1.3261719l.171875-1.9921875c3.9921875.3447266,8.0214844.7949219,11.9765625,1.3359375l-.2714844,1.9824219ZM264.1806641,99.8808594l-.21875-1.9882812c3.9765625-.4384766,8.0146484-.7861328,12.0019531-1.0332031l.1230469,1.9960938c-3.9550781.2451172-7.9609375.5898438-11.90625,1.0253906ZM299.9833984,98.546875c-3.9560547-.1435547-7.9853516-.1923828-11.9550781-.1386719l-.0253906-2c4.0048828-.0507812,8.0664062-.0048828,12.0527344.140625l-.0722656,1.9980469Z"/>
  <path class="cls-21" d="M367.390625,368.765625l-1.9941406-.1621094c.3183594-3.9238281.8789062-7.9580078,1.6660156-11.9902344l1.9628906.3828125c-.7734375,3.9589844-1.3232422,7.9189453-1.6347656,11.7695312ZM371.7597656,345.3740234l-1.9355469-.5058594c.9931641-3.7988281,2.0957031-7.6962891,3.2753906-11.5839844l1.9140625.5820312c-1.1728516,3.8613281-2.2675781,7.7333984-3.2539062,11.5078125ZM941.1972656,334.3623047c-1.4277344-3.7177734-2.9316406-7.4521484-4.4707031-11.0996094l1.84375-.7773438c1.5458984,3.6679688,3.0585938,7.4228516,4.4941406,11.1601562l-1.8671875.7167969ZM378.6992188,322.4775391l-1.8925781-.6484375c1.2783203-3.7255859,2.65625-7.5351562,4.0966797-11.3212891l1.8691406.7109375c-1.4316406,3.765625-2.8027344,7.5537109-4.0732422,11.2587891ZM931.9033203,312.3125c-1.6679688-3.625-3.4101562-7.2548828-5.1777344-10.7880859l1.7890625-.8945312c1.7763672,3.5527344,3.5283203,7.2021484,5.2050781,10.8466797l-1.8164062.8359375ZM387.203125,300.0917969l-1.8476562-.7675781c1.5175781-3.6503906,3.125-7.3671875,4.7802734-11.046875l1.8242188.8203125c-1.6474609,3.6621094-3.2480469,7.3613281-4.7568359,10.9941406ZM921.2001953,290.9121094c-1.9013672-3.5078125-3.8769531-7.015625-5.8730469-10.4257812l1.7265625-1.0097656c2.0068359,3.4287109,3.9931641,6.9550781,5.9042969,10.4824219l-1.7578125.953125ZM397.0283203,278.2412109l-1.8007812-.8710938c1.7587891-3.6328125,3.5751953-7.2539062,5.3974609-10.7626953l1.7753906.921875c-1.8144531,3.4921875-3.6220703,7.0957031-5.3720703,10.7119141ZM909.0966797,270.2353516c-2.1240234-3.3671875-4.3349609-6.7431641-6.5693359-10.0351562l1.6542969-1.1230469c2.2480469,3.3095703,4.4707031,6.7050781,6.6064453,10.0917969l-1.6914062,1.0664062ZM408.0830078,256.9804688l-1.7441406-.9765625c2.9042969-5.1875,4.7441406-8.1523438,4.7617188-8.1816406.4511719-.7392578.9082031-1.4814453,1.3662109-2.2197266l1.6992188,1.0546875c-.4560547.734375-.9091797,1.4726562-1.3623047,2.2138672-.0224609.0371094-1.8408203,2.9667969-4.7207031,8.109375ZM895.6240234,250.3945312c-2.3457031-3.2148438-4.7792969-6.4335938-7.2324219-9.5654297l1.5742188-1.2324219c2.4667969,3.1494141,4.9140625,6.3857422,7.2734375,9.6181641l-1.6152344,1.1796875ZM420.6318359,236.5878906l-1.6660156-1.1074219c2.234375-3.3583984,4.5332031-6.6904297,6.8300781-9.9023438l1.6269531,1.1640625c-2.2841797,3.1933594-4.5693359,6.5058594-6.7910156,9.8457031ZM880.8378906,231.5214844c-2.5634766-3.0498047-5.2109375-6.0917969-7.8701172-9.0410156l1.4863281-1.3398438c2.6738281,2.9667969,5.3369141,6.0263672,7.9150391,9.09375l-1.53125,1.2871094ZM434.5498047,217.140625l-1.5839844-1.2207031c2.4648438-3.1962891,4.9960938-6.3554688,7.5234375-9.3886719l1.5371094,1.2792969c-2.5117188,3.0146484-5.0273438,6.1542969-7.4765625,9.3300781ZM864.7910156,213.71875c-2.7724609-2.8681641-5.6259766-5.7167969-8.4794922-8.4667969l1.3886719-1.4394531c2.8701172,2.765625,5.7392578,5.6308594,8.5283203,8.515625l-1.4375,1.390625ZM449.8564453,198.7783203l-1.484375-1.3398438c2.6953125-2.9863281,5.4697266-5.9355469,8.2460938-8.7646484l1.4277344,1.4003906c-2.7568359,2.8095703-5.5117188,5.7382812-8.1894531,8.7041016ZM847.5400391,197.09375c-2.9580078-2.6552734-6.0048828-5.2919922-9.0556641-7.8388672l1.28125-1.5351562c3.0693359,2.5615234,6.1347656,5.2148438,9.1103516,7.8857422l-1.3359375,1.4882812ZM829.1533203,181.7480469c-3.1308594-2.4267578-6.359375-4.8359375-9.5957031-7.1611328l1.1679688-1.625c3.2558594,2.3398438,6.5029297,4.7646484,9.6523438,7.2060547l-1.2246094,1.5800781ZM466.5986328,181.7275391l-1.3652344-1.4609375c2.9326172-2.7402344,5.953125-5.4375,8.9794922-8.0175781l1.296875,1.5214844c-3.0019531,2.5605469-6.0009766,5.2382812-8.9111328,7.9570312ZM809.7099609,167.7851562c-3.3154297-2.2011719-6.7109375-4.3652344-10.0917969-6.4316406l1.0429688-1.7070312c3.4023438,2.0800781,6.8193359,4.2578125,10.1542969,6.4726562l-1.1054688,1.6660156ZM484.7792969,166.2333984l-1.2246094-1.5800781c3.1708984-2.4570312,6.4316406-4.8603516,9.6933594-7.1435547l1.1464844,1.6386719c-3.234375,2.2646484-6.4697266,4.6484375-9.6152344,7.0849609ZM789.2958984,155.3037109c-3.4619141-1.9423828-7.0087891-3.8457031-10.5400391-5.6572266l.9121094-1.7792969c3.5546875,1.8222656,7.1230469,3.7373047,10.6064453,5.6923828l-.9785156,1.7441406ZM504.3447266,152.5429688l-1.0644531-1.6933594c3.3964844-2.1347656,6.8798828-4.2050781,10.3535156-6.1513672l.9785156,1.7441406c-3.4453125,1.9306641-6.8994141,3.9833984-10.2675781,6.1005859ZM768.015625,144.3945312c-3.5957031-1.6738281-7.2744141-3.3007812-10.9326172-4.8378906l.7753906-1.84375c3.6806641,1.5458984,7.3828125,3.1845703,11.0009766,4.8691406l-.84375,1.8125ZM525.1748047,140.8701172l-.8867188-1.7929688c3.5888672-1.7773438,7.2646484-3.4824219,10.9257812-5.0683594l.7949219,1.8359375c-3.6298828,1.5712891-7.2744141,3.2626953-10.8339844,5.0253906ZM745.9785156,135.1455078c-3.703125-1.3896484-7.4921875-2.7285156-11.2646484-3.9804688l.6308594-1.8984375c3.7958984,1.2597656,7.609375,2.6074219,11.3369141,4.0058594l-.703125,1.8730469ZM547.0869141,131.3769531l-.7011719-1.8730469c3.7441406-1.4003906,7.5751953-2.7236328,11.3857422-3.9335938l.6054688,1.90625c-3.7792969,1.2001953-7.578125,2.5126953-11.2900391,3.9003906ZM723.3095703,127.6269531c-3.8056641-1.1005859-7.6855469-2.140625-11.53125-3.0917969l.4804688-1.9414062c3.8710938.9570312,7.7753906,2.0039062,11.6054688,3.1113281l-.5546875,1.921875ZM569.8486328,124.1435547l-.5097656-1.9335938c3.8535156-1.0175781,7.7958984-1.9560547,11.7167969-2.7900391l.4160156,1.9570312c-3.8896484.8261719-7.7998047,1.7578125-11.6230469,2.7666016ZM700.140625,121.8974609c-3.8720703-.7978516-7.8183594-1.5322266-11.7275391-2.1806641l.328125-1.9726562c3.9345703.6523438,7.9052734,1.390625,11.8037109,2.1943359l-.4042969,1.9589844ZM593.2148438,119.1660156l-.3242188-1.9726562c3.9248047-.6445312,7.9335938-1.2089844,11.9140625-1.6777344l.234375,1.9863281c-3.9511719.4658203-7.9296875,1.0253906-11.8242188,1.6640625ZM676.5810547,117.9912109c-3.9257812-.4941406-7.9267578-.9189453-11.890625-1.2617188l.171875-1.9921875c3.9902344.3447266,8.0175781.7724609,11.96875,1.2695312l-.25,1.984375ZM616.9287109,116.3652344l-.1464844-1.9941406c3.953125-.2919922,7.9960938-.5039062,12.0146484-.6318359l.0625,1.9990234c-3.9902344.1269531-8.0039062.3378906-11.9306641.6269531ZM652.7607422,115.9335938c-2.8066406-.1328125-5.6601562-.2285156-8.4824219-.2832031-1.15625-.0234375-2.3144531-.0400391-3.4736328-.0488281l.015625-2c1.1669922.0087891,2.3330078.0253906,3.4980469.0488281,2.8398438.0556641,5.7119141.1513672,8.5361328.2851562l-.09375,1.9980469Z"/>
  <path class="cls-21" d="M837.3779297,824.4355469l-1.3769531-1.4511719c.03125-.0292969,3.1523438-3.0019531,8.3349609-8.6289062l1.4707031,1.3554688c-5.2333984,5.6826172-8.3974609,8.6943359-8.4287109,8.7246094ZM853.8203125,806.7001953l-1.515625-1.3046875c2.5478516-2.9589844,5.1357422-6.0546875,7.6923828-9.2021484l1.5527344,1.2617188c-2.5683594,3.1611328-5.1689453,6.2724609-7.7294922,9.2451172ZM869.0205078,788.0078125l-1.5839844-1.2207031c2.4091797-3.1279297,4.8291016-6.3544922,7.1943359-9.5908203l1.6152344,1.1796875c-2.375,3.25-4.8056641,6.4902344-7.2255859,9.6318359ZM883.2304688,768.5722656l-1.6425781-1.140625c2.2578125-3.2509766,4.5185547-6.5898438,6.7197266-9.9267578l1.6699219,1.1015625c-2.2109375,3.3496094-4.4804688,6.7021484-6.7470703,9.9658203ZM896.4853516,748.4853516l-1.6953125-1.0625c2.1103516-3.3691406,4.2119141-6.8115234,6.2441406-10.2294922l1.71875,1.0214844c-2.0400391,3.4316406-4.1484375,6.8867188-6.2675781,10.2705078ZM908.7773438,727.8007812l-1.7421875-.9804688c1.9570312-3.4765625,3.8935547-7.0126953,5.7548828-10.5097656l1.765625.9394531c-1.8681641,3.5107422-3.8125,7.0605469-5.7783203,10.5507812ZM920.0839844,706.5664062l-1.7871094-.8984375c1.7871094-3.5566406,3.5546875-7.1796875,5.2519531-10.7685547l1.8085938.8554688c-1.7050781,3.6025391-3.4794922,7.2402344-5.2734375,10.8115234ZM930.3710938,684.8222656l-1.828125-.8125c1.6123047-3.6308594,3.2041016-7.3339844,4.7285156-11.0048828l1.8476562.7675781c-1.53125,3.6855469-3.1289062,7.4033203-4.7480469,11.0498047ZM939.5976562,662.609375l-1.8652344-.7226562c1.4345703-3.7050781,2.8427734-7.4804688,4.1855469-11.2216797l1.8828125.6757812c-1.3486328,3.7568359-2.7626953,7.5478516-4.203125,11.2685547ZM947.7226562,639.9716797l-1.8984375-.6289062c1.2470703-3.765625,2.4658203-7.6054688,3.6220703-11.4150391l1.9140625.5820312c-1.1611328,3.8242188-2.3857422,7.6806641-3.6376953,11.4619141ZM954.7060547,616.9599609l-1.9277344-.5332031c1.0634766-3.8525391,2.0859375-7.7490234,3.0380859-11.5810547l1.9414062.4824219c-.9570312,3.8486328-1.9833984,7.7617188-3.0517578,11.6318359ZM960.5117188,593.6230469l-1.953125-.4335938c.8623047-3.890625,1.6835938-7.8339844,2.4404297-11.7207031l1.9628906.3828125c-.7597656,3.9023438-1.5849609,7.8632812-2.4501953,11.7714844ZM965.1054688,570.0185547l-1.9726562-.3320312c.6591797-3.9228516,1.2734375-7.9033203,1.8271484-11.8300781l1.9804688.2792969c-.5556641,3.9443359-1.1738281,7.9423828-1.8349609,11.8828125ZM968.4638672,546.2080078l-1.9863281-.2265625c.4492188-3.9306641.8554688-7.9375,1.2060547-11.9111328l1.9921875.1757812c-.3525391,3.9902344-.7597656,8.015625-1.2119141,11.9619141ZM970.5712891,522.2568359l-1.9960938-.1230469c.2441406-3.9609375.4394531-7.984375.5800781-11.9580078l1.9980469.0703125c-.140625,3.9912109-.3369141,8.0322266-.5820312,12.0107422ZM971.4228516,498.2246094l-2-.0175781c.0126953-1.4150391.0195312-2.8339844.0195312-4.2568359,0-2.5585938-.0214844-5.1289062-.0654297-7.7128906l2-.0332031c.0439453,2.59375.0654297,5.1757812.0654297,7.7460938,0,1.4287109-.0068359,2.8535156-.0195312,4.2744141ZM969.0224609,474.2744141c-.1699219-3.9755859-.3925781-7.9960938-.6640625-11.9511719l1.9960938-.1367188c.2714844,3.9716797.4960938,8.0097656.6660156,12.0019531l-1.9980469.0859375ZM967.3916016,450.3945312c-.3701172-3.9375-.7978516-7.9423828-1.2705078-11.9013672l1.9863281-.2363281c.4746094,3.9755859.9033203,7.9960938,1.2753906,11.9501953l-1.9912109.1875ZM964.5546875,426.6298828c-.5673828-3.9150391-1.1933594-7.8925781-1.8613281-11.8222656l1.9726562-.3359375c.6699219,3.9472656,1.2988281,7.9404297,1.8671875,11.8710938l-1.9785156.2871094ZM960.5478516,403.0332031c-.7597656-3.8955078-1.5771484-7.8378906-2.4287109-11.7177734l1.953125-.4296875c.8554688,3.8955078,1.6757812,7.8535156,2.4384766,11.7646484l-1.9628906.3828125Z"/>
  <path class="cls-9" d="M790.8885627,376.8330822l38.4640474,236.1358363c1.1067241,6.7943245-3.6891873,13.1350491-10.52822,13.9194696l-341.8472956,39.2090607c-6.4421079.7388943-12.315248-3.7487677-13.2949642-10.1586722l-40.2625291-263.4221748c-1.0905651-7.1351465,4.2889973-13.6237431,11.5026655-13.8740199l343.6457773-11.9227222c6.0669201-.2104906,11.3445494,4.1216192,12.3205187,10.1132225Z"/>
  <path class="cls-39" d="M773.8236038,392.8769568l34.7724361,213.47255c.4791902,2.9418116-1.6114572,5.6821417-4.5753463,5.9971659l-316.0084802,33.5877277c-2.7593103.29328-5.2614495-1.635119-5.6807005-4.3781164l-36.3547458-237.8550586c-.4712891-3.0834628,1.8636157-5.8834321,4.9815779-5.9738047l317.5907899-9.2052191c2.6010577-.0753904,4.8561197,1.7864545,5.2744689,4.3547552Z"/>
  <path class="cls-9" d="M399.6177612,391.2510217l40.9647707,269.7372595c.9560883,6.2954737-3.1472515,12.2493851-9.3707145,13.5968278l-300.8889684,65.1455057c-6.8905702,1.4918782-13.5859107-3.2199498-14.5075789-10.2096698l-43.0954752-326.8261951c-.9357421-7.0964534,4.4798896-13.4412346,11.6352422-13.6314783l303.0196729-8.0565701c6.0806153-.1616691,11.3297392,4.2305127,12.2430511,10.2443203Z"/>
  <path class="cls-23" d="M717.7899137,569.9669296l1.9305911,11.9529723c.1606637.9947259-.5591443,1.9158282-1.5632094,2.0003608l-201.4656053,16.9614611c-.9049858.0761911-1.7149061-.5601702-1.8549978-1.4574877l-1.8673448-11.9607431c-.1548735-.9919978.5641817-1.9071542,1.564658-1.9913725l201.402359-16.9536904c.9014886-.0758857,1.7092992.5553969,1.8535492,1.4484995Z"/>
  <path class="cls-38" d="M635.5002719,493.8932491l1.9305732,11.9528615c.160717.9950558-.5596092,1.9163592-1.5640483,2.0004312l-107.4489634,8.9935256c-.9046998.0757238-1.7141171-.5605609-1.8541588-1.4575582l-1.8673232-11.9606047c-.1549261-.9923348.5646573-1.907695,1.5655151-1.9914444l107.3857134-8.9857824c.9011966-.07541,1.7084948.5557954,1.852692,1.4485714Z"/>
  <path class="cls-33" d="M718.0738791,528.0777801l1.9300284,11.9494888c.1620238,1.0031464-.5710618,1.9293442-1.5846058,2.0020286l-119.1692883,8.5460047c-.8976302.0643719-1.6947825-.5699914-1.8336013-1.4591556l-1.866827-11.9574269c-.1561894-1.0004269.5761285-1.920644,1.5860827-1.9930421l119.1060869-8.5380666c.8941281-.0640952,1.6891906.5652153,1.8321244,1.4501691Z"/>
  <path class="cls-15" d="M647.4622096,426.1623251l1.9286429,11.9409109c.1647438,1.0199869-.5952058,1.9561306-1.6272758,2.0045593l-148.5452863,6.9703162c-.8825873.0414144-1.6546387-.588703-1.7909313-1.4616863l-1.8655535-11.9492695c-.1588186-1.0172673.600306-1.9473503,1.6287663-1.9955722l148.4821968-6.9619576c.8790912-.0412184,1.6491165.5839015,1.7894408,1.4526992Z"/>
  <path class="cls-40" d="M749.162051,453.2061743l2.4787472,11.4738323c.2235956,1.0349979-.5264314,2.0263118-1.5832314,2.0925637l-149.183134,9.3524594c-.89222.0559343-1.6801949-.5769259-1.8180938-1.4601977l-1.8655488-11.9492394c-.1574521-1.0085143.5876883-1.9335104,1.6066024-1.9943905l148.5699355-8.8770524c.852333-.0509269,1.6144203.5274251,1.7947228,1.3620245Z"/>
  <path class="cls-7" d="M649.7784993,908.8023375s-159.228821,83.4731368-271.4808892,70.9253888c-27.6835941-3.0945244-116.3582222-28.0567307-188.3953654-50.7932374l-53.186839-16.844211c-17.4040203-4.8752389-30.8229775-9.0682927-37.8518772-11.9976052-61.5886491-25.6672317,65.1492247-60.5258283,65.1492247-60.5258283l98.6893204-25.3998895,47.2581687-10.8932227s188.2772444-63.0925026,299.9757408-46.3169642c27.5470723,4.1371816,115.216369,32.4284492,186.34404,57.8676543"/>
  <path class="cls-39" d="M402.1572266,981.9941406c-8.1640625,0-16.1796875-.4023438-23.9707031-1.2724609-27.9824219-3.1289062-116.0517578-27.9404297-188.5849609-50.8339844-.5273438-.1660156-.8193359-.7275391-.6533203-1.2539062s.7333984-.8154297,1.2548828-.6533203c70.6689453,22.3046875,160.6464844,47.6728516,188.2060547,50.7529297,57.7861328,6.4619141,128.3447266-13.1269531,177.359375-30.6943359,53.1630859-19.0556641,93.1474609-39.9130859,93.5458984-40.1220703.4863281-.2548828,1.09375-.0683594,1.3496094.421875.2568359.4882812.0673828,1.0927734-.421875,1.3496094-.3984375.2089844-40.484375,21.1210938-93.7724609,40.2236328-42.6298828,15.28125-101.5126953,32.0820312-154.3125,32.0820312Z"/>
  <path class="cls-39" d="M309.8310547,803.8964844c-.4335938,0-.8330078-.2841797-.9599609-.7207031-.1542969-.5302734.1503906-1.0859375.6806641-1.2392578,51.03125-14.8291016,103.7988281-30.1630859,157.0869141-39.4677734,60.2421875-10.5166016,113.0634766-11.9052734,161.4794922-4.2402344.5458984.0859375.9179688.5986328.8310547,1.1435547-.0849609.5449219-.5957031.9189453-1.1435547.8310547-48.1972656-7.6279297-100.8027344-6.2431641-160.8232422,4.2363281-53.1796875,9.2851562-105.8935547,24.6035156-156.8720703,39.4169922-.09375.0273438-.1875.0400391-.2792969.0400391Z"/>
  <path class="cls-24" d="M368.4516376,873.7389423l43.6489703,5.4110294c2.8161489.3491094,4.6155325-2.9175818,2.8099358-5.1067351-7.513772-9.1098964-21.5442571-24.9778203-25.8353961-22.0083469-3.9190782,2.7120069-14.9862289,10.8288726-22.1013191,16.0662257-2.2848214,1.6818362-1.3377119,5.2887955,1.4778092,5.637827Z"/>
  <path class="cls-12" d="M405.7019459,855.0311503c-7.6139881-3.129724-11.6913937-3.8342214-15.3238138-4.2992452-3.6324201-.4650238-12.0514816,11.3209569-12.903859,14.7258074s3.3327627,6.3339919,6.8513582,1.57143c3.5185955-4.7625619,5.2860793-6.3605833,8.1154818-5.6271453,2.8294025.7334381,9.1728818,4.2737185,11.3335264,5.6376488l2.1454673.3909454s-11.1253772-1.8773606-15.5230653-.479989-7.0492087,5.7803869-8.1282085,8.6273919c-1.0789998,2.8470051.3999048,6.6857537,1.2663565,7.8016326s4.2476992.7733724,5.4091546-2.7349438c1.1614554-3.5083163,3.3132686-4.2061715,7.1830629-3.5203904,3.8697944.6857811,13.3032192,7.4164398,32.1817426,10.8457015,18.8785234,3.4292617,60.0935956,12.685077,79.6539031,17.4299604l-.2719115-1.5914968c-2.3011831-13.4688168-2.6231373-27.2014941-.9556716-40.7633534l.0000025-.0000205c-24.3786053,3.0404511-45.9633138.6079215-54.1406238-1.6971085-14.7100699-4.1464924-22.0219349-16.0928891-30.8132567-18.3169401-7.2812547-1.8420304-14.5633582-1.1284983-16.5882203,2.3020113l11.8588947,2.9692936s-19.1212335-5.3199377-23.9264993-4.3647836c-4.8052658.9551542-8.2879161,10.4175063-8.2879161,10.4175063"/>
  <path class="cls-21" d="M506.8498468,863.7602565s-4.0047942,30.6682223,4.6294492,46.5301054c26.8497058,1.4841216,65.2704567-.3294111,97.6939208-17.6470233,20.3613896-10.8751689,33.0822863-28.2352372,33.0822863-28.2352372,0,0,2.2089068,26.1352437,23.9353396,36.4581802,4.858045,27.7660884,18.3831386,112.2926407,18.3831386,112.2926407,0,0,22.2321739-56.6798279,22.8725732-98.1003431.7858488-50.8280718,3.6554699-80.4083287,7.2804627-97.2575626,2.288591-10.6375399,16.9639359-18.5813388,36.0548666-24.7650467,19.0909307-6.1837079,51.3496873-10.5525663,81.3550979-8.4286813,3.3027271-14.1743286,4.0164171-21.304995,3.0898447-38.6342867-1.2729839-23.8080805-7.2466183-36.6227362-23.2219584-41.1881304-15.9753402-4.5653942-24.9372459-.7394579-24.9372459-.7394579,0,0-3.1396934,28.1491158-12.5350425,43.4513403-9.3953491,15.3022245-20.0958416,13.8689386-26.5238934,10.0265612-5.4052143-3.2309747-4.0008242-12.8537118-18.9189568-11.6514624-9.9142627.7989885-21.292596-15.6421141-24.5560488-21.4129692-3.726259-6.5892484-7.8120126-15.1411019-7.8120126-15.1411019,0,0-11.760672,1.1547114-21.7647221,4.4130766-10.0040501,3.2583652-24.5916215,8.9602853-33.7886373,23.6432403-9.2837649,14.8214493-18.4046568,33.063233-26.5483102,47.0703169-8.2043227,14.1114351-25.4328092,41.7698699-46.9012587,56.8878493-21.4684495,15.1179794-44.0142133,20.0412445-60.8688928,22.4279917Z"/>
  <path class="cls-6" d="M434.3949927,915.6505156l-124.9745292-30.7126409c-.1172941-.0288252-.2401585-.0256034-.3557868.0093295l-77.1535073,23.3091073c-.6495577.1962401-.6368737,1.1220643.0178155,1.3003696l121.4136182,33.0671329c.125246.0341109.2576513.0313328.3813619-.0080017l80.7144183-25.6635994c.6501871-.2067306.6191148-1.1388858-.0433905-1.3016973Z"/>
  <path class="cls-5" d="M608.1265937,792.0670716c-.1245495-.0306082-69.0786399,20.2994842-69.2014207,20.3365779l-81.92599,24.7509382c-.6897374.2083789-.6762687,1.1914718.0189175,1.3808065l70.464806,19.5276483"/>
  <g>
    <line class="cls-6" x1="272.2050471" y1="905.1124462" x2="262.4993168" y2="908.5432031"/>
    <line class="cls-6" x1="285.3702887" y1="908.5783653" x2="275.7379424" y2="912.0208328"/>
    <line class="cls-6" x1="330.0523619" y1="900.8290974" x2="290.4945725" y2="916.1229843"/>
    <line class="cls-6" x1="344.7638129" y1="905.3410866" x2="306.23921" y2="920.6636552"/>
  </g>
  <path class="cls-39" d="M136.4970703,912.9277344c-9.0322266-2.3681641-18.3095703-4.7998047-27.2480469-7.8642578-.7724609-.265625-1.5664062-.5322266-2.3740234-.8046875-7.0800781-2.3867188-15.1035156-5.0917969-20.6611328-9.8076172-3.8857422-3.2998047-5.9335938-7.9365234-5.34375-12.1015625,1.2207031-8.6083984,11.3623047-15.34375,18.8847656-19.6601562,8.078125-4.6376953,16.9736328-7.8222656,26.1376953-10.9414062,40.1123047-13.6582031,83.5351562-25.7783203,136.65625-38.1425781.5351562-.1328125,1.0742188.2089844,1.2001953.7470703s-.2089844,1.0751953-.7470703,1.2001953c-53.0546875,12.3496094-96.4169922,24.4521484-136.4648438,38.0878906-9.0673828,3.0878906-17.8632812,6.2353516-25.7861328,10.7832031-7.1591797,4.1083984-16.8027344,10.4648438-17.9003906,18.2070312-.5917969,4.1728516,2.0185547,8.0546875,4.6582031,10.2949219,5.2646484,4.46875,13.0957031,7.1083984,20.0048828,9.4375.8115234.2734375,1.6083984.5419922,2.3837891.8076172,8.8691406,3.0410156,18.109375,5.4628906,27.0458984,7.8056641l-.1923828.9833984-.2539062.9677734Z"/>
  <path class="cls-39" d="M103.1441748,428.4161809c2.7185999,20.4158519,26.7351812,200.5380492,38.6967211,282.1813583.147989,1.010097,1.1334653,1.668924,2.1248284,1.4252111l78.5614711-19.3132531c.872374-.2144611,1.4355834-1.0607877,1.296554-1.9483128l-41.5390639-265.1737917c-.1350492-.8621167-.8908514-1.4888076-1.7630663-1.4618874l-75.7148645,2.3368785c-1.0246201.0316241-1.7978902.9376585-1.6625799,1.9537971Z"/>
  <path class="cls-42" d="M177.8960105,439.2609144l5.1553619,31.5522451c.1620264.9916464-.5517316,1.9123515-1.5524673,2.0025901l-62.9505107,5.6763909c-.9223999.0831749-1.7467797-.5746104-1.8704477-1.4924589l-4.7352307-35.14429c-.1367976-1.0152945.63348-1.9265173,1.6573802-1.9606473l62.5303795-2.084346c.8694399-.0289813,1.6252572.5919779,1.7655349,1.4505161Z"/>
  <path class="cls-23" d="M184.3277104,480.9551205l5.1871833,34.4146952c.147031.9754866-.54989,1.8763419-1.5310341,1.9790478l-62.6546839,6.55868c-.9306962.0974251-1.7702445-.5626462-1.8951996-1.4900475l-4.7466485-35.2290315c-.1314149-.9753453.5759361-1.863794,1.5559263-1.9542782l62.2141491-5.7443437c.9132096-.0843183,1.7336216.5584272,1.8703074,1.4652779Z"/>
  <path class="cls-27" d="M190.0282678,526.2338336l5.1871833,34.4146952c.147031.9754866-.54989,1.8763419-1.5310341,1.9790478l-62.6546839,6.55868c-.9306962.0974251-1.7702445-.5626462-1.8951996-1.4900475l-4.7466485-35.2290315c-.1314149-.9753453.5759361-1.863794,1.5559263-1.9542782l62.2141491-5.7443437c.9132096-.0843183,1.7336216.5584272,1.8703074,1.4652779Z"/>
  <g class="cls-59">
    <rect class="cls-8" x="850.5587523" y="203.9706102" width="68.3246503" height="68.3246501" rx="34.1622918" ry="34.1622918" transform="translate(134.8014594 -288.2312412) rotate(19.9999988)"/>
    <g>
      <polygon class="cls-31" points="917.226968 220.4511717 919.5874823 223.4821354 923.0494969 220.8153978 920.6889827 217.7844341 917.226968 220.4511717"/>
      <rect class="cls-31" x="880.8168538" y="204.8698318" width="3.8417142" height="3.8069527" transform="translate(-23.7285038 189.4508141) rotate(-12.0885449)"/>
      <rect class="cls-31" x="900.8669187" y="204.3375686" width="5.5397526" height="7.1244178" transform="translate(399.212922 985.934694) rotate(-70)"/>
    </g>
    <circle class="cls-47" cx="890.5399814" cy="241.9700662" r="34.6259231"/>
    <circle class="cls-39" cx="890.5748378" cy="241.8742952" r="29.9918358"/>
    <path class="cls-47" d="M872.9451211,221.8172848l.6013073-.5158678,2.6953553,3.1414674-.6013073.5158678-2.6953553-3.1414674ZM904.9158225,259.0955195l.6014582-.5158129,2.6945696,3.1417046-.6014582.5158129-2.6945696-3.1417046ZM870.1163317,258.7956389l3.1405386-2.6937714.5158129.6014582-3.1405386,2.6937714-.5158129-.6014582ZM907.3821386,226.8268871l3.1417093-2.6945679.515812.6014605-3.1417093,2.6945679-.515812-.6014605ZM885.4222149,215.6515521l.7793889-.1419403.7405223,4.0708472-.7793889.1419403-.7405223-4.0708472ZM894.20864,263.960882l.779385-.1419444.740845,4.0723661-.779385.1419444-.740845-4.0723661ZM864.3178931,246.1433022l4.0706077-.7413088.1419426.7793898-4.0706077.7413088-.1419426-.7793898ZM912.6219896,237.353926l4.0722844-.7415741.1419379.779388-4.0722844.7415741-.1419379-.779388ZM882.3037882,262.6795449l.7417373.2782356-1.4545206,3.8752273-.7417373-.2782356,1.4545206-3.8752273ZM915.9631314,249.788602l-.2496013.7518599-3.9266519-1.3044446.2496013-.7518599,3.9266519,1.3044446ZM869.3656894,234.3072901l-.2495958.7518585-3.9281392-1.3048905.2495958-.7518585,3.9281392,1.3048905Z"/>
    <rect class="cls-47" x="902.3792136" y="198.3559853" width="5.5413968" height="12.2696465" rx="1.5222008" ry="1.5222008" transform="translate(403.4119056 985.1135259) rotate(-70)"/>
    <rect class="cls-47" x="878.9616686" y="203.1405294" width="6.7118195" height="3.3287849" rx="1.0306911" ry="1.0306911" transform="translate(-23.3259887 189.3422404) rotate(-12.0900038)"/>
    <rect class="cls-47" x="920.2900936" y="215.8756667" width="3.3287849" height="6.7118195" rx="1.0306911" ry="1.0306911" transform="translate(59.8528011 612.7328385) rotate(-37.9099962)"/>
    <path class="cls-20" d="M889.892937,246.080207c-.4692778.342736-1.1275488.2401558-1.4702848-.229122-.2103715-.2880389-.2604952-.6630423-.133161-.9962182l6.9349291-18.5364103c.3853067-1.0298884.8207916-2.0403002,1.3048915-3.0276089l3.6769846-7.4991095c-.0437743.1047088.0090954-.0152735,0,0-.0519339.0872105-.0729165.0450684,0,0l-1.9451355,7.8208568c-.3097865,1.2455666-.6904822,2.4724172-1.140226,3.6745546l-6.8489754,18.3068851c-.0743935.1965848-.2065224.3660662-.3790181.4861692l-.0000044.0000031Z"/>
    <path class="cls-39" d="M891.6541025,243.5251947c-.8606809.6146534-2.0566779.4152121-2.6713313-.4454689s-.4152164-2.0566748.4454645-2.6713282c.8606896-.6146596,2.0566823-.4152152,2.6713356.4454658h0c.6136362.8609141.4143268,2.0561198-.4454689,2.6713313Z"/>
    <path class="cls-20" d="M890.9078593,240.9601611c.5564087.2014854.8441379.8158813.6426475,1.3722881-.2014803.5564105-.8158794.8441329-1.3722881.6426475-.5564105-.2014803-.8441297-.8158726-.6426475-1.3722881l.0011989-.003294c.2028323-.5544605.8159679-.8403703,1.3710892-.6393535M891.4854557,239.3732279c-1.4325125-.5213919-3.0164731.2172168-3.5378719,1.6497325-.5213938,1.4325175.217215,3.0164781,1.6497375,3.5378737,1.4325125.5213919,3.0164749-.2172218,3.5378669-1.6497343l.0006004-.0016495c.5192017-1.4321592-.2191675-3.0142899-1.6503328-3.5362224Z"/>
  </g>
  <g class="cls-61">
    <path class="cls-39" d="M75.9944634,296.9987303l-52.9151906,19.2595498c-2.0759117.7555699-4.371281-.3147786-5.1268509-2.3906903l-14.1933362-38.9958798,60.4327317-21.9957104,14.1933362,38.9958798c.7555699,2.0759117-.3147786,4.371281-2.3906903,5.1268509Z"/>
    <path class="cls-17" d="M61.807893,246.3262196l2.3839244,6.54978-60.4327317,21.9957104-2.3839244-6.54978c-.7555699-2.0759117.3147786-4.371281,2.3906903-5.1268509l52.9151906-19.2595498c2.0759117-.7555699,4.371281.3147786,5.1268509,2.3906903Z"/>
    <g>
      <circle class="cls-19" cx="52.8501046" cy="250.6610938" r="2.4049481" transform="translate(-82.5438461 33.1924854) rotate(-19.9999879)"/>
      <path class="cls-39" d="M53.158991,251.5097672h0c.7153589-.2603693,1.0841782-1.0513439.8238164-1.7666823l-2.1295269-5.8508284c-.2603618-.7153384-1.0513225-1.0841877-1.7666813-.8238185h0c-.7153383.2603618-1.0841592,1.051337-.8237973,1.7666754l2.1295269,5.8508284c.2603618.7153384,1.051324,1.0841872,1.7666623.8238254Z"/>
    </g>
    <g>
      <circle class="cls-19" cx="10.7560636" cy="265.9820681" r="2.4049303"/>
      <path class="cls-39" d="M11.0649555,266.8307397h0c.7153383-.2603618,1.0841797-1.0513445.8238179-1.7666828l-2.1295269-5.8508284c-.2603618-.7153384-1.0513445-1.0841797-1.7666828-.8238179h0c-.7153383.2603618-1.0841823,1.0513454-.8238205,1.7666838l2.1295269,5.8508284c.2603618.7153384,1.0513471,1.0841788,1.7666854.823817Z"/>
    </g>
    <rect class="cls-45" x="38.7657641" y="266.3631032" width="9.7210881" height="9.7210882" rx="4.8605367" ry="4.8605367" transform="translate(177.3856881 511.1693701) rotate(159.9999739)"/>
    <rect class="cls-46" x="26.6122557" y="270.7866175" width="9.721088" height="9.7210881" rx="4.8605437" ry="4.8605437" transform="translate(155.3246106 523.9063482) rotate(159.9999604)"/>
    <rect class="cls-45" x="14.4587676" y="275.2101243" width="9.721088" height="9.7210883" rx="4.8605383" ry="4.8605383" transform="translate(133.2631136 536.6435141) rotate(160.0000498)"/>
    <rect class="cls-45" x="42.9861767" y="277.9585939" width="9.7210879" height="9.7210883" rx="4.8605354" ry="4.8605354" transform="translate(189.5379476 532.2175536) rotate(159.9999599)"/>
    <rect class="cls-45" x="55.1396646" y="273.5350871" width="9.7210882" height="9.7210881" rx="4.8605421" ry="4.8605421" transform="translate(211.5987172 519.4807712) rotate(160.0000377)"/>
    <rect class="cls-45" x="30.832668" y="282.3821082" width="9.7210882" height="9.7210883" rx="4.8605385" ry="4.8605385" transform="translate(167.4766559 544.9546441) rotate(159.999995)"/>
    <rect class="cls-45" x="18.6791801" y="286.8056152" width="9.7210882" height="9.7210881" rx="4.8605396" ry="4.8605396" transform="translate(145.41547 557.6916648) rotate(160.0000131)"/>
    <rect class="cls-45" x="59.3600698" y="285.1305573" width="9.7210878" height="9.7210882" rx="4.8605385" ry="4.8605385" transform="translate(223.7510616 540.5288476) rotate(159.999997)"/>
    <rect class="cls-45" x="35.0530732" y="293.9775784" width="9.721088" height="9.7210882" rx="4.8605383" ry="4.8605383" transform="translate(179.6286727 566.0029099) rotate(160.0000286)"/>
    <rect class="cls-45" x="22.8995852" y="298.4010853" width="9.7210879" height="9.7210883" rx="4.8605378" ry="4.8605378" transform="translate(157.5677569 578.7397963) rotate(159.9999889)"/>
    <polyline class="cls-1" points="29.7875232 276.6832319 31.1568287 277.240104 32.7002151 273.6292056"/>
    <rect class="cls-13" x="50.9192521" y="261.9395963" width="9.721088" height="9.7210883" rx="4.8605407" ry="4.8605407" transform="translate(-107.5285036 48.5706744) rotate(-25.0000064)"/>
    <polyline class="cls-1" points="54.0945198 267.8362107 55.4638252 268.3930828 57.0072116 264.7821844"/>
    <rect class="cls-49" x="47.2065818" y="289.5540642" width="9.7210877" height="9.7210882" rx="4.8605362" ry="4.8605362" transform="translate(-119.5465803 49.5887864) rotate(-24.9999706)"/>
    <polyline class="cls-1" points="50.3818493 295.4506785 51.7511547 296.0075506 53.2945412 292.3966522"/>
  </g>
  <g>
    <g class="cls-60">
      <rect class="cls-39" x="492.1596525" y="258.489377" width="75.6638692" height="59.3307253" rx="8" ry="8" transform="translate(619.5013405 -308.4290687) rotate(70.0000643)"/>
    </g>
    <g>
      <circle class="cls-30" cx="517.7908749" cy="301.1567084" r="5.4341016"/>
      <rect class="cls-22" x="527.2951389" y="291.121587" width="23.2109525" height="1.2740926" transform="translate(-67.2876189 201.9098828) rotate(-19.9999829)"/>
      <rect class="cls-22" x="528.5768006" y="294.6429268" width="23.2109525" height="1.2740926" transform="translate(-68.4146936 202.560599) rotate(-19.9999829)"/>
      <circle class="cls-35" cx="512.3251621" cy="286.139772" r="5.4341016"/>
      <rect class="cls-22" x="521.8294261" y="276.1046505" width="23.2109525" height="1.2740926" transform="translate(-62.4811506 199.1348699) rotate(-19.9999829)"/>
      <rect class="cls-22" x="523.1110878" y="279.6259903" width="23.2109525" height="1.2740926" transform="translate(-63.6082253 199.7855861) rotate(-19.9999829)"/>
      <circle class="cls-16" cx="523.2565877" cy="316.1736448" r="5.4341016"/>
      <rect class="cls-22" x="532.7608517" y="306.1385234" width="23.2109525" height="1.2740926" transform="translate(-72.0940872 204.6848957) rotate(-19.9999829)"/>
      <rect class="cls-22" x="534.0425133" y="309.6598632" width="23.2109525" height="1.2740926" transform="translate(-73.2211618 205.3356118) rotate(-19.9999829)"/>
      <circle class="cls-34" cx="506.8594494" cy="271.1228355" r="5.4341016"/>
      <rect class="cls-22" x="516.3637133" y="261.0877141" width="23.2109525" height="1.2740926" transform="translate(-57.6746824 196.359857) rotate(-19.9999829)"/>
      <rect class="cls-22" x="517.645375" y="264.6090539" width="23.2109525" height="1.2740926" transform="translate(-58.801757 197.0105732) rotate(-19.9999829)"/>
      <path class="cls-39" d="M517.0466448,303.6269958l-1.3035709-.5848461c-.2457089-.1102371-.355526-.3987919-.2452801-.6444969l.0000004-.0000009c.1102406-.2456933.3987789-.3555034.6444757-.2452706l.865129.3881436,1.8492801-3.9658275c.1138098-.2440679.4039273-.3496625.6479948-.2358519l.000031.0000145c.2440674.1138106.349661.4039283.2358497.6479953l-2.0523911,4.4013295c-.1126374.2415497-.3983495.3479086-.6415185.238811Z"/>
      <path class="cls-39" d="M522.5123576,318.6439322l-1.3035709-.5848461c-.2457089-.1102371-.355526-.3987919-.2452801-.6444969l.0000004-.0000009c.1102406-.2456933.3987789-.3555034.6444757-.2452706l.865129.3881436,1.8492801-3.9658275c.1138098-.2440679.4039273-.3496625.6479948-.2358519l.000031.0000145c.2440674.1138106.349661.4039283.2358497.6479953l-2.0523911,4.4013295c-.1126374.2415497-.3983495.3479086-.6415185.238811Z"/>
      <path class="cls-39" d="M511.5809321,288.6100593l-1.3035709-.5848461c-.2457089-.1102371-.355526-.3987919-.2452801-.6444969l.0000004-.0000009c.1102406-.2456933.3987789-.3555034.6444757-.2452706l.865129.3881436,1.8492801-3.9658275c.1138098-.2440679.4039273-.3496625.6479948-.2358519l.000031.0000145c.2440674.1138106.349661.4039283.2358497.6479953l-2.0523911,4.4013295c-.1126374.2415497-.3983495.3479086-.6415185.238811Z"/>
      <path class="cls-39" d="M506.1152193,273.5931229l-1.3035709-.5848461c-.2457089-.1102371-.355526-.3987919-.2452801-.6444969l.0000004-.0000009c.1102406-.2456933.3987789-.3555034.6444757-.2452706l.865129.3881436,1.8492801-3.9658275c.1138098-.2440679.4039273-.3496625.6479948-.2358519l.000031.0000145c.2440674.1138106.349661.4039283.2358497.6479953l-2.0523911,4.4013295c-.1126374.2415497-.3983495.3479086-.6415185.238811Z"/>
    </g>
  </g>
  <g class="cls-62">
    <path class="cls-43" d="M975.5580811,575.1393608l-25.4718265-4.4913683-.0528246-.067063c-1.2639862-1.6042805-2.1387057-3.5683027-2.5295854-5.6798335-.3940023-2.1282415-.285959-4.356862.3123503-6.4450892.4778649-1.6679685,1.2534295-3.2196085,2.3051883-4.6117489,1.9926534-2.6378865,4.918788-4.3075388,7.7485799-5.9221715,3.0290276-1.7283341,5.890032-3.3607892,7.6842485-6.0732157.4501998-.6806362.8920657-1.9506755,1.181958-3.3973401.0663317-.3312949.1214429-.660382.1593439-.9518932l.0017671-.0157754c.1132426-1.2411604.0917649-2.2743956-.0604066-2.9093338-.7582552-3.162441-2.8883925-5.6749413-5.1435805-8.3349608-2.1069356-2.4852019-4.2855467-5.0549675-5.2558822-8.2152994-.6178424-2.0120598-.7784524-4.0842309-.4774049-6.1589807.5945095-4.098134,2.9598528-7.7334355,6.3273441-9.7244139l.0712647-.0421299,25.1125661,4.428021.0524841.0639135c2.4841121,3.0234774,3.4632775,7.2495842,2.6192524,11.3048645-.4269194,2.0514767-1.2863751,3.9428139-2.5544815,5.6214892-1.9927092,2.6378401-4.9188374,4.307457-7.748622,5.9221001-3.0291558,1.7284394-5.8900919,3.3608701-7.684217,6.0731938-.2477841.3745706-.5070138.9597545-.749775,1.6922869l-.0032706.0102546-.1863331.6150934c-.0980859.3237306-.1958463.7650998-.2752499,1.2427389-.1897566,1.141375-.3072441,2.7164419-.0680132,3.7140087.7582583,3.1624233,2.8883184,5.6749466,5.1435219,8.3350327,2.1069136,2.4851706,4.2855815,5.0548731,5.2559311,8.2152806.5117921,1.6669499.7099706,3.3892084.5890511,5.1189826-.1515625,2.1675674-.8121628,4.299388-1.9103858,6.1650858-1.0896056,1.8510389-2.5835905,3.3979067-4.3204434,4.4733144l-.0725491.0449562Z"/>
    <path class="cls-51" d="M949.6297735,571.4113198l26.0962483,4.6014707.3420864-.2118617c1.8510334-1.1461113,3.4413961-2.7914822,4.5991218-4.7583099,1.1630999-1.9758978,1.8627069-4.2335032,2.0232068-6.5286842.1280516-1.8320126-.0817661-3.6558525-.6236361-5.4208437-1.0204863-3.3235917-3.255255-5.9595454-5.4164189-8.5087217-2.1893738-2.5824397-4.2572699-5.0215642-4.9693294-7.9913804-.2105003-.8777714-.0886506-2.3715702.079639-3.3839945.0737383-.4433838.1628192-.8475559.2508439-1.1380713l.1846908-.6097708c.2164214-.6521992.4480662-1.1813633.6524645-1.490379,1.6848442-2.5471227,4.462274-4.1319133,7.4027084-5.8097293,2.9029427-1.656366,5.9044642-3.36903,8.0000926-6.1430937,1.3427609-1.7775082,2.2528445-3.7803971,2.7050045-5.9530936.8947445-4.2991221-.1485168-8.7857419-2.7907227-12.0016763l-.2475951-.3014242-25.717982-4.5347721-.3357742.1985605c-3.5818542,2.117743-6.0965796,5.9758515-6.7268137,10.3204439-.3188554,2.1973077-.1487919,4.3916975.5053922,6.5222075,1.0204729,3.3235527,3.2552285,5.9595408,5.4164415,8.5086982,2.1893108,2.5823829,4.2572096,5.0215444,4.969303,7.9913757.127543.5319622.1430788,1.5155414.0417228,2.6321127-.035512.2711199-.08701.5779019-.1490913.8878906-.2618103,1.3065317-.6779675,2.524233-1.0602989,3.1021708-1.6849016,2.5472406-4.4623267,4.1320046-7.402817,5.8097741-2.9028186,1.6563878-5.9043564,3.3690399-7.999951,6.1431187-1.1135569,1.4740455-1.9348459,3.1171521-2.4410181,4.8838172-.6334645,2.2110899-.7478584,4.5712626-.3305645,6.8252505.4153323,2.2434963,1.3468986,4.3331033,2.6940156,6.0428238l.2490306.3160916ZM975.5580811,575.1393608l-25.4718265-4.4913683-.0528246-.067063c-1.2639862-1.6042805-2.1387057-3.5683027-2.5295854-5.6798335-.3940023-2.1282415-.285959-4.356862.3123503-6.4450892.4778649-1.6679685,1.2534295-3.2196085,2.3051883-4.6117489,1.9926534-2.6378865,4.918788-4.3075388,7.7485799-5.9221715,3.0290276-1.7283341,5.890032-3.3607892,7.6842485-6.0732157.4501998-.6806362.8920657-1.9506755,1.181958-3.3973401.0663317-.3312949.1214429-.660382.1593439-.9518932l.0017671-.0157754c.1132426-1.2411604.0917649-2.2743956-.0604066-2.9093338-.7582552-3.162441-2.8883925-5.6749413-5.1435805-8.3349608-2.1069356-2.4852019-4.2855467-5.0549675-5.2558822-8.2152994-.6178424-2.0120598-.7784524-4.0842309-.4774049-6.1589807.5945095-4.098134,2.9598528-7.7334355,6.3273441-9.7244139l.0712647-.0421299,25.1125661,4.428021.0524841.0639135c2.4841121,3.0234774,3.4632775,7.2495842,2.6192524,11.3048645-.4269194,2.0514767-1.2863751,3.9428139-2.5544815,5.6214892-1.9927092,2.6378401-4.9188374,4.307457-7.748622,5.9221001-3.0291558,1.7284394-5.8900919,3.3608701-7.684217,6.0731938-.2477841.3745706-.5070138.9597545-.749775,1.6922869l-.0032706.0102546-.1863331.6150934c-.0980859.3237306-.1958463.7650998-.2752499,1.2427389-.1897566,1.141375-.3072441,2.7164419-.0680132,3.7140087.7582583,3.1624233,2.8883184,5.6749466,5.1435219,8.3350327,2.1069136,2.4851706,4.2855815,5.0548731,5.2559311,8.2152806.5117921,1.6669499.7099706,3.3892084.5890511,5.1189826-.1515625,2.1675674-.8121628,4.299388-1.9103858,6.1650858-1.0896056,1.8510389-2.5835905,3.3979067-4.3204434,4.4733144l-.0725491.0449562Z"/>
    <g class="cls-57">
      <path class="cls-41" d="M960.6650739,531.8434484c-.1749665-.0308513-.3504936-.0600473-.5263937-.0882338-.1479952-.7639316.1537064-3.3605059.2650302-4.1350933.0687441-.4782952.186721-.943534.3479989-1.3891747,4.3172131,3.9120582,7.5546574,4.6668079,9.7873623,4.5632355,1.336177-.0619862,3.2267698-.4861585,6.0436138-.0363373.8914468.14236,1.7066559.3396277,2.4388899.561252-.1670366.6168121-.7376194,3.0241935-1.0663819,3.5730648l-17.2901194-3.0487132Z"/>
    </g>
    <path class="cls-41" d="M965.2398252,552.6368625c.5703748-.5717227.9500906-1.3060946,1.0903296-2.1014299l1.6037476-9.0953086c.3976562-2.2552213.5238743-4.5511503.3563486-6.8350259-.0421098-.5739404-.0959274-1.0537895-.1607338-1.3241585-.1745419-.7280544-.4184492-1.4233707-.7116257-2.0943004l5.1535172.9087037c-.5049121.5302053-.9718671,1.1001774-1.384947,1.7246183-.1330126.2011368-.3364885.6225304-.5670037,1.1460718-.9772404,2.2193716-1.6766807,4.5509222-2.0977715,6.9390482l-1.5430515,8.7510836c-.1404769.7966844-.0343429,1.6180591.3075383,2.3512048,3.4968358,7.4982071,12.1852546,9.7049741,13.4306144,10.0007907l-22.9709863-1.9480647-8.6399082-2.5470011c1.2720963.1480502,10.28275-.0110015,16.1339321-5.8762319Z"/>
    <path class="cls-41" d="M966.9811333,552.0819881c3.4968831,7.4981907,12.4055152,10.5557871,13.6508702,10.8515978l-22.9612943-.8718895-8.5648162-3.548602c1.2720594.1480497,10.8815173-.7770442,16.7327204-6.6422571l1.1425198.2111508Z"/>
    <path class="cls-4" d="M968.2151214,535.6066901c-.042092-.5739397-.0959236-1.0537748-.1607409-1.3241403-.8278554-3.4525429-3.1553118-6.1978064-5.4061158-8.8526746-2.0250945-2.3886727-4.1192089-4.8586712-5.0139934-7.7730692-.5630631-1.8336428-.7094548-3.7217159-.435254-5.6118118.1227107-.8457894.3287968-1.6691173.6081552-2.4583564,7.2776913,6.8561494,12.762687,8.1485513,16.5532446,7.9374276,2.2685168-.1263454,5.482521-.8994929,10.2575194-.1404259,1.5111402.2402219,2.8922064.5784166,4.132136.9606889-.4266268,1.5989356-1.151595,3.0822796-2.1606728,4.4180457-1.8376669,2.4325933-4.6502354,4.0374116-7.3701933,5.5894039-3.023082,1.7249402-6.149093,3.5086106-8.1078725,6.4697949-.1330391.2011379-.3364795.6225475-.5669925,1.1460705-.9772307,2.2193745-1.67671,4.550902-2.0978044,6.9390479l-1.5430509,8.7510802c-.1404732.7966632-.0343523,1.61807.3075514,2.351204,3.4968858,7.4982135,12.185282,9.7049873,13.4306398,10.0007895l-22.9709679-1.9480686-8.5648162-3.548602c1.2720684.1480512,10.20759.9905787,16.0587944-4.8746342.5703785-.5717349.9501153-1.3060734,1.090354-2.1014069l1.6037487-9.0953148c.397659-2.2552372.5238589-4.5511647.3563312-6.8350483Z"/>
    <path class="cls-36" d="M949.01975,558.8008705c.0276209-.0963589.0563624-.1922825.0861432-.2877761,3.2425548,1.2402918,5.9958821,1.7591122,8.0693112,1.993367,6.748468.7624432,10.2030238-1.041263,16.802069.2478413,2.5709405.5022359,4.802673,1.3145695,6.6547302,2.1792832.0201863.4769828.0139722.9557454-.0195371,1.4351427-.2685846,3.8415964-2.2946613,7.4265878-5.317647,9.4528195l-24.5104017-4.3218432c-2.1470812-2.9371132-2.8250533-6.9978135-1.7646679-10.6988343Z"/>
    <rect class="cls-51" x="973.3192402" y="484.8133295" width="3.552925" height="36.9477482" rx="1.7764711" ry="1.7764711" transform="translate(310.1310364 1376.1741558) rotate(-80.0000043)"/>
    <rect class="cls-51" x="960.9648171" y="554.8787759" width="3.5529249" height="36.9477481" rx="1.7764607" ry="1.7764607" transform="translate(230.9209386 1421.9061375) rotate(-80.0000042)"/>
  </g>
  <g>
    <g class="cls-58">
      <circle class="cls-37" cx="575.0134253" cy="117.9178178" r="29.4987131"/>
      <path class="cls-44" d="M594.219824,140.3064397l-5.8156257-2.9589017-3.9900741-2.740833-2.009195-1.6758684-1.1562449-2.1792971-.6799475-.7287315.8409971-3.3215172.7693743-1.6746239.6245832-2.4348649.4909928.2189545.6759626-.0793443.5755331-.6255762.6571194-1.0619093.4714448-.9689055.6020812-1.7669862.4568372-1.0889882.1231504-1.3242762-.2866986-.7358381-.3969794-.2673953-.3923184-.0565793.3481521-1.6707138,1.7922406-8.8979765-5.0392286-6.010571-8.6158953-1.5192148-7.1141473,4.7932548-1.4476945,7.9649054.1673269,1.8297786-.3880026-.0810124-.4645005.1154932-.5210211.5934153-.3372056,1.2865325.0567865,1.1795539-.0385074,1.8663594.1115471,1.0717027.2542959,1.2226164.3269381.7847063.6080671.3057534.5362618-.0378218-.2459301,2.5016317.1502938,1.8367861-.5937491,3.4135984-1.0026384.7744121-1.4694203,1.3254709-2.46128.8876031-4.6867897,1.2108678-6.4105318.7832832c4.1824189,7.4347788,11.5384806,13.0061043,20.5949022,14.6029958,9.0476025,1.5953364,17.8575011-1.116909,24.3287377-6.6619289Z"/>
      <polygon class="cls-10" points="573.0836689 129.7212659 575.3952031 129.8565927 576.5536365 129.5330451 578.3655079 128.8843876 580.0438196 127.9407018 581.3787995 126.866621 580.8001008 130.1121111 581.2486658 130.7515589 580.2101753 130.3862311 577.9324491 130.4703561 576.0042624 130.9175871 574.8705382 130.8172137 572.7585361 130.311711 571.1506768 129.1415455 573.0836689 129.7212659"/>
      <g>
        <polygon class="cls-39" points="564.7258934 127.8381483 563.5451556 128.5644945 563.1227721 129.1622123 562.7858884 130.1036902 562.9548943 131.3518119 563.8649645 133.0680774 565.8935806 135.045764 568.7230777 136.4869737 571.5855134 137.2446864 571.7210351 136.4761045 569.0788818 135.7924765 566.2262907 134.4101952 564.3587871 132.5493849 563.636423 131.2405572 563.5195046 129.9278728 563.8281906 129.0652794 564.7258934 127.8381483"/>
        <polygon class="cls-39" points="581.2486658 130.7515589 582.1097787 131.8379385 582.3022505 132.5440718 582.2968132 133.5439927 581.7111315 134.6590426 580.2689333 135.9605397 577.6862563 137.1251309 574.5344687 137.5116787 571.5855134 137.2446864 571.7210351 136.4761045 574.4376617 136.7373739 577.5909884 136.4140981 579.9823098 135.3042334 581.1087481 134.3213995 581.6675726 133.1278668 581.672527 132.2117174 581.2486658 130.7515589"/>
      </g>
      <path class="cls-48" d="M559.4778441,130.6077607l-3.7711282.9743289-6.4105318.7832832c4.1824189,7.4347788,11.5384144,13.0060926,20.5949022,14.6029958,9.0476025,1.5953364,17.8575011-1.116909,24.3287377-6.6619289l-5.8156257-2.9589017-3.2104612-2.2053715-3.0839899-3.3042639-.5899544,4.1241706-10.6939255,5.4760693-8.176143-8.8033715.8561737-4.077229-4.0280539,2.0502187Z"/>
      <path class="cls-39" d="M582.1097471,131.8379026l-.8896706,2.9047774-3.6898237,2.0282537-4.4553356.0344426-2.7387623-.4829177-4.1747997-1.5561683-2.7736112-3.1679316.1574167-3.0338935-.8254072.6960886-.6255853,1.6301743-.1022287,1.881372.1097035,2.2178252.7887228,3.252856,1.0087429,3.5820213,1.3540534,3.9287661c1.4883365.5198283,3.0350255.9321657,4.6379241,1.2148,1.5876951.2799535,3.1672146.4221424,4.7290577.4447921l2.621691-3.2356756,2.1730317-3.0209886,1.8537139-2.7869231.8616285-2.0465531.5474035-1.8028756-.0302392-1.7458139-.5376263-.9364282Z"/>
      <path class="cls-18" d="M566.2344694,115.1023565c.0407227-.6332081.0975151-1.5215583.1438723-2.2665453.0823537-1.3214685,1.3477896-2.3106481,1.0748061-3.3745745-.273084-1.0639442.0885967-4.6074254,1.8679069-5.3692418.6672295-.2857611,1.4368603-.2413615,2.3299224-.0455001.7046187.2053821,1.5702899.5954219,2.3951225,1.2700287,1.6770744,1.3714778,4.1716857.5896968,4.1716857.5896968,0,0,1.8792894,1.0473005,4.2072085.3882367,0,0,.4475223.6277908,1.6672533,1.2365206,1.219731.6087298.2977648,1.9390343.6397472,2.4816028.2462767.3903924.3511924,1.0934881.1707231,1.7462626-.1139621.3038383-.234508.5538066-.346992.7180395-.6204048.906398.2303966,2.2687273-.1441851,3.5386681-.2139748.7251857-.4688116,1.5920803-.6468385,2.2026093l.2051276.0460168,1.2172232-2.0504575h0c1.2026786-1.2546603,1.5003378-3.6865596,1.5003378-3.6865596,0,0,1.1528433-2.5390501,1.2110244-4.6572855.0076585-.0499061.0174894-.0985991.024479-.1488307.9480238.2931246,1.5487341.1857193,1.5487341.1857193,0,0-.9955303-.368529-.6475032-3.344993.3098404-2.6486812-1.8144054-3.7437395-1.8144054-3.7437395.9321458-.7036781.3463567-1.9642867.3463567-1.9642867-.5964074.2324663-1.4295788.3748333-3.0162981-1.2230914-1.5867547-1.5977235-3.14086-1.3757903-3.14086-1.3757903-1.0472321-1.7941514-3.9460662-.5328977-3.9460662-.5328977,0,0-1.6560572-.9187067-4.5069464-.2159334-2.8509898.7027556-5.0759509,3.0110516-4.2959753,4.5702762-2.3995383.174336-2.8032274,3.2105033-2.829076,5.5961178-.0259491,2.3855968-.0390333,7.0843632-.0390333,7.0843632l.4369628,2.3133252"/>
    </g>
    <circle class="cls-3" cx="575.0134253" cy="117.9178178" r="29.4987131"/>
  </g>
  <path class="cls-39" d="M195.6340613,426.3126866c3.1111928,19.44017,28.8966435,180.7559406,40.8392329,261.7963304.1483817,1.0068932,1.1281431,1.6626354,2.1174365,1.4235759l81.2960747-19.6449334c.8894595-.214935,1.4578542-1.0851759,1.2971591-1.9860156l-43.6706631-244.8130725c-.1511389-.8472684-.9019382-1.4547121-1.7620903-1.4256413l-78.4659889,2.651932c-1.0407057.035173-1.8157159.9696089-1.6511609,1.9978245Z"/>
  <path class="cls-15" d="M272.1215355,435.3471763l5.3182722,32.7960117c.1612247.9942192-.5573664,1.9155271-1.5609178,2.0012576l-61.3707534,5.2427277c-.8994645.0768387-1.7068888-.5506442-1.8545275-1.4412302l-5.8550307-35.318716c-.1697839-1.0241702.5941217-1.9663123,1.631269-2.0118813l61.907512-2.7200234c.8768499-.0385261,1.6436825.5854756,1.7841763,1.451854Z"/>
  <path class="cls-40" d="M279.9574549,477.1236049l5.625397,34.0484555c.1623826.9828423-.5364638,1.8995033-1.5272166,2.0032151l-62.6964578,6.5630528c-.9033167.094559-1.7260327-.5253182-1.8842408-1.4196854l-6.0740344-34.3371612c-.1755049-.9921476.5303505-1.9238662,1.5329641-2.0234899l63.1450952-6.2743471c.9078371-.0902063,1.7297803.5398547,1.8784934,1.4399602Z"/>
  <path class="cls-39" d="M295.337102,422.4214945c3.1460511,18.3786856,27.7204246,162.2979477,39.5965754,242.7485726.1471627.9968997,1.1102936,1.6527028,2.0931207,1.4301788l78.364018-17.7425668c.8988639-.2035137,1.4805261-1.0757801,1.3228859-1.983813l-39.5277232-227.6861128c-.1477321-.8509611-.9002837-1.4627128-1.7634803-1.4335391l-78.4372422,2.6509605c-1.0482246.0354271-1.8251172.9825337-1.6481543,2.01632Z"/>
  <path class="cls-23" d="M371.7998536,431.4382226l5.3182722,32.7960117c.1612247.9942192-.5573664,1.9155271-1.5609178,2.0012576l-61.3707534,5.2427277c-.8994645.0768387-1.7068888-.5506442-1.8545275-1.4412302l-5.8550307-35.318716c-.1697839-1.0241702.5941217-1.9663123,1.631269-2.0118813l61.907512-2.7200234c.8768499-.0385261,1.6436825.5854756,1.7841763,1.451854Z"/>
  <path class="cls-25" d="M379.9132162,473.7890453l5.3664666,33.5311635c.1538913.9615555-.5155875,1.8607073-1.4808997,1.9889407l-62.7526195,8.3361413c-.938811.1247129-1.8034829-.5283874-1.9402687-1.4655155l-5.2320112-35.8448427c-.1428535-.9786986.5621848-1.8778362,1.5467111-1.9725255l62.6181641-6.0224621c.9093682-.0874608,1.730084.5470159,1.8744574,1.4491003Z"/>
  <path class="cls-32" d="M287.7710884,521.7690739l5.3232968,33.1227356c.1537506.9566701-.5078797,1.8531567-1.4673651,1.9882299l-63.638361,8.9587984c-.9481074.1334714-1.8244059-.5282888-1.9554773-1.4767309l-4.8926855-35.4038113c-.1338142-.9682887.5603425-1.8551565,1.5324239-1.9578542l63.2077496-6.6777227c.9143004-.0965933,1.7445317.5386149,1.8904185,1.4463553Z"/>
  <path class="cls-26" d="M294.0189259,564.7864028l6.5176869,33.4772102c.1823434.9365821-.4278085,1.8440371-1.3639622,2.0285674l-64.2796778,12.6705134c-.9697803.1911586-1.902397-.4674147-2.0466707-1.4452698l-5.348081-36.2481045c-.1386036-.9394241.5056978-1.8150574,1.4438201-1.9622139l63.1100719-9.8996191c.9197953-.1442816,1.7888885.4650325,1.9668128,1.3789162Z"/>
  <path class="cls-33" d="M302.1371892,609.470608l5.6330048,34.0945029c.148041.8960378-.421775,1.7540758-1.3050776,1.9652066l-63.3717021,15.1473825c-.9880361.2361647-1.9660255-.4255384-2.1143026-1.4305275l-5.3488437-36.253274c-.1339542-.9079119.4641426-1.7625042,1.3630301-1.9475693l63.087541-12.9886114c.9622371-.1981076,1.8962084.4436113,2.0563501,1.4128902Z"/>
  <path class="cls-38" d="M387.2074488,516.2443083l6.2207171,33.4733824c.1748457.9408363-.4470852,1.8449713-1.3882305,2.0181466l-64.2460478,11.8215819c-.9636382.1773141-1.8821501-.4800456-2.0251649-1.4493678l-5.3479421-36.2471632c-.1399625-.948635.5181303-1.8302192,1.467409-1.9657477l63.3732728-9.047801c.918217-.1310938,1.7765156.4850546,1.9459864,1.3969689Z"/>
  <line class="cls-5" x1="506.7216937" y1="833.88935" x2="496.4935196" y2="837.5447581"/>
  <line class="cls-5" x1="582.0669027" y1="810.3088553" x2="518.2206597" y2="830.1793697"/>
  <line class="cls-5" x1="570.1061476" y1="825.8446186" x2="514.311706" y2="843.2092152"/>
  <line class="cls-5" x1="554.6665454" y1="841.1335083" x2="531.2505052" y2="848.4211534"/>
  <g class="cls-56">
    <path class="cls-39" d="M72.1484375,608.2353516c-.2451172,0-.4599609-.1806641-.4941406-.4316406l-6.5166016-46.9521484c-.0380859-.2734375.1533203-.5253906.4267578-.5634766.2490234-.0400391.5253906.1513672.5634766.4267578l6.5166016,46.9521484c.0380859.2734375-.1533203.5253906-.4267578.5634766-.0224609.0029297-.0458984.0048828-.0693359.0048828Z"/>
    <path class="cls-39" d="M110.2558594,774.1074219c-3.6435547,0-7.2441406-1.1171875-10.2636719-3.2421875-4.0576172-2.8554688-6.7568359-7.3144531-7.4052734-12.2333984l-14.7001953-105.921875c-.0380859-.2734375.1533203-.5253906.4267578-.5634766.2568359-.0410156.5263672.1513672.5634766.4267578l14.7011719,105.9248047c.6123047,4.6455078,3.1601562,8.8535156,6.9892578,11.5488281,3.8310547,2.6962891,8.65625,3.6728516,13.2285156,2.6826172l101.7265625-22.0253906c.2744141-.0585938.5361328.1142578.59375.3828125.0585938.2695312-.1123047.5361328-.3828125.59375l-101.7265625,22.0253906c-1.2402344.2685547-2.4980469.4013672-3.7509766.4013672Z"/>
    <path class="cls-39" d="M315.7558594,730.0136719c-.2294922,0-.4365234-.1601562-.4873047-.3945312-.0585938-.2695312.1123047-.5361328.3828125-.59375l93.4667969-20.2363281c.265625-.0576172.5351562.1123047.59375.3828125.0585938.2695312-.1123047.5361328-.3828125.59375l-93.4667969,20.2363281c-.0351562.0078125-.0712891.0117188-.1064453.0117188Z"/>
    <path class="cls-39" d="M512.2724609,685.7890625c-.25,0-.4667969-.1884766-.4960938-.4433594-.03125-.2744141.1660156-.5214844.4404297-.5537109l73.9042969-8.4765625c.2558594-.0253906.5224609.1650391.5537109.4404297.03125.2744141-.1660156.5214844-.4404297.5537109l-73.9042969,8.4765625c-.0185547.0019531-.0380859.0029297-.0576172.0029297Z"/>
    <path class="cls-39" d="M851.0527344,551.2666016c-.2402344,0-.4521484-.1738281-.4921875-.4199219l-17.3154297-106.3037109c-.0449219-.2724609.140625-.5292969.4130859-.5732422.2636719-.0507812.5292969.1386719.5732422.4130859l17.3154297,106.3037109c.0449219.2724609-.140625.5292969-.4130859.5732422-.0273438.0048828-.0537109.0068359-.0810547.0068359Z"/>
    <path class="cls-39" d="M825.4169922,393.8837891c-.2402344,0-.4521484-.1738281-.4921875-.4199219l-6.5625-40.2871094c-1.0986328-6.7441406-7.0976562-11.6376953-13.9042969-11.4130859l-116.1757812,4.03125c-.3105469-.0048828-.5078125-.2080078-.5175781-.4824219-.0087891-.2763672.2070312-.5078125.4824219-.5175781l116.1757812-4.03125c7.3085938-.2705078,13.7451172,5.0126953,14.9257812,12.2529297l6.5625,40.2871094c.0449219.2724609-.140625.5292969-.4130859.5732422-.0273438.0048828-.0537109.0068359-.0810547.0068359Z"/>
  </g>
  <path class="cls-39" d="M215.4619141,750.7275391c17.8782079-1.5732166,37.2619146.0665973,42.8533108,20.3011807,1.799033,5.5140048,2.9928806,11.182706,4.0080173,16.8411533.0981445.5437012-.2631836,1.0637207-.8071289,1.1618652-.5547224.1010352-1.0860759-.2816891-1.1669916-.839601-.827149-5.6540514-1.7431646-11.2963854-3.3984381-16.7294908-4.8844999-19.5585053-24.1083318-22.2337827-41.3868491-19.7706627-.6168193.0915183-.7790827-.9048175-.1019204-.9644447h0Z"/>
  <path class="cls-39" d="M303.1181641,775.4772949c-2.4382824-15.6522443-6.7283626-39.8508448,12.4136167-46.4370799.6182775-.1864385.9376511.7317403.3133954.9541927-18.3688133,6.7096413-13.5096164,30.0898161-10.75923,45.1273419.2362804,1.291768-1.7232928,1.680146-1.967782.3555453h0Z"/>
  <path class="cls-39" d="M585.8637695,676.3276367c13.2744934-.9374146,27.3150249.1806745,30.9096042,15.5234001,1.3708908,5.4351685.821037,13.3562121.8736447,18.9520034-.0601043,6.2999871-.0713348,12.6017449-.0586395,18.9054559.0009766.5524902-.4462891,1.0012207-.9985352,1.0024414-.5760139.0032065-1.0390357-.4902856-1.0004867-1.0644557.2861312-6.2890599.5488266-12.5800755.7626937-18.8730443.1538086-6.2807617.8251953-12.6328125-.5048828-18.7106934-3.0915009-14.565223-17.2925573-16.4283155-29.8877911-14.7143765-.6700403.0917508-.8062259-.9718691-.0956073-1.020731h0Z"/>
  <path class="cls-39" d="M678.4741988,1031.6670269c7.2341959-21.2326281,17.4218099-45.9111919,23.0937715-73.2214012,13.3380862-64.2222132,1.546333-121.5088407,15.843852-144.8390885,20.2540112-33.0498671,167.8666375-44.3850581,177.1551948,3.9996898,3.5629866,18.5598476,5.0789679,46.6961694,4.7902848,77.5906053-.5171527,55.3449004-40.042608,102.6221788-94.4451896,112.8047402l-126.4379134,23.6654544Z"/>
  <g>
    <path class="cls-39" d="M678.4746094,1032.0644531c-.1064453,0-.2158203-.0166016-.3222656-.0537109-.5234375-.1777344-.8027344-.7460938-.6240234-1.2685547,1.7304688-5.0810547,3.6074219-10.2939453,5.59375-15.8134766,6.1708984-17.1425781,13.1650391-36.5722656,17.4667969-57.2890625,6.4228516-30.9238281,6.9892578-59.6337891,7.4902344-84.9648438.5283203-26.7607422.9453125-47.8984375,8.4804688-60.1933594,14.3378906-23.3974609,87.2099609-34.6132812,133.2236328-26.2412109,12.6142578,2.2958984,22.8984375,5.8769531,30.5683594,10.6435547,8.5683594,5.3251953,13.6816406,12.03125,15.1982422,19.9306641,3.3623047,17.5205078,5.0732422,44.6933594,4.8164062,76.5126953-.0048828.5498047-.4511719.9921875-1,.9921875h-.0078125c-.5527344-.0048828-.9970703-.4560547-.9921875-1.0078125.2558594-31.6923828-1.4423828-58.7255859-4.78125-76.1201172-1.9003906-9.9003906-11.1044922-22.9658203-44.1601562-28.9833984-49.5859375-9.0273438-118.2333984,4.2246094-131.1601562,25.3183594-7.2509766,11.8320312-7.6640625,32.7304688-8.1865234,59.1884766-.4765625,24.1591797-1.0703125,54.2255859-7.5302734,85.3310547-4.3310547,20.8554688-11.3505859,40.3554688-17.5439453,57.5605469-1.9833984,5.5107422-3.8574219,10.7158203-5.5830078,15.7802734-.1416016.4160156-.5302734.6777344-.9462891.6777344Z"/>
    <path class="cls-39" d="M516.3398438,911.8662109c-1.6240234,0-3.2285156-.0078125-4.8134766-.0224609-.3115234-.0029297-.6035156-.1503906-.7900391-.3984375-9.1357422-12.1445312-4.9785156-47.0683594-4.796875-48.5498047.0556641-.4599609.421875-.8212891.8837891-.8720703l.1523438-.0166016c22.9023438-2.9023438,42.2714844-9.7675781,57.5537109-20.4033203,30.3291016-21.1083984,50.8173828-59.9042969,64.375-85.5761719,3.9658203-7.5087891,7.390625-13.9931641,10.1601562-18.2392578,15.0908203-23.1240234,40.1943359-26.6416016,53.6806641-28.5302734l1.3837891-.1953125c.5507812-.0800781,1.0527344.3027344,1.1308594.8496094.0771484.546875-.3027344,1.0527344-.8496094,1.1308594l-1.3876953.1953125c-14.0966797,1.9746094-37.6894531,5.2802734-52.2822266,27.6435547-2.7207031,4.1679688-6.125,10.6142578-10.0673828,18.0791016-13.6484375,25.84375-34.2734375,64.8974609-65.0009766,86.2832031-15.4091797,10.7246094-34.8652344,17.6767578-57.8339844,20.6679688-.5576172,5.1933594-3.3701172,35.0419922,4.2109375,45.9355469,1.1611328.0097656,2.3193359.0146484,3.4550781.0146484,59.9375,0,86.1972656-12.6884766,102.4140625-23.8359375,23.1738281-15.9296875,37.5117188-39.4306641,54.4472656-74.6416016.2402344-.4970703.8398438-.7070312,1.3349609-.4677734.4980469.2392578.7070312.8369141.4677734,1.3349609-17.0820312,35.5146484-31.5761719,59.2412109-55.1171875,75.4228516-30.4765625,20.9492188-70.2675781,24.1914062-102.7109375,24.1914062Z"/>
    <path class="cls-39" d="M684.4824219,1015.0996094c-.4824219,0-.9072266-.3496094-.9863281-.8417969l-18.0859375-112.7451172c-22.9804688-12.2060547-24.4277344-36.2998047-24.4404297-36.5439453-.0273438-.5507812.3974609-1.0195312.9492188-1.046875.5498047-.046875,1.0195312.3974609,1.0488281.9482422.0117188.2333984,1.4472656,23.515625,23.8105469,35.1015625.28125.1455078.4775391.4160156.5273438.7294922l18.1650391,113.2402344c.0878906.5449219-.2832031,1.0585938-.8291016,1.1455078-.0537109.0087891-.1064453.0126953-.1591797.0126953Z"/>
    <path class="cls-39" d="M832.5595703,785.0654297c-.0703125,0-.1416016-.0068359-.2128906-.0224609-.5400391-.1171875-.8828125-.6494141-.765625-1.1894531.078125-.3583984,7.65625-36.0908203-1.7099609-60.2871094-3.8105469-9.8476562-13.7636719-21.0429688-39.515625-18.4970703-.5322266.0576172-1.0400391-.3466797-1.09375-.8964844-.0546875-.5498047.3466797-1.0390625.8964844-1.09375,21.078125-2.0908203,35.8388672,4.9335938,41.578125,19.7646484,9.5839844,24.7617188,1.8789062,61.0703125,1.7998047,61.4335938-.1015625.46875-.5166016.7880859-.9765625.7880859Z"/>
  </g>
  <path class="cls-2" d="M689.6000297,623.6451441s-.8478206,4.0942714-5.9524574,5.5790444"/>
  <path class="cls-12" d="M687.4405276,683.6025055c-2.8723687-15.1075008-3.4568779-27.8895129-4.9090961-41.3952084,8.4501522-.7035816,15.5229677-7.7016533,15.5441985-18.4148363.0284265-14.3442221-16.5874531-17.2754924-20.4803902-1.2492724-24.0950346-.1221548-18.3665924-36.4169917-28.6869174-46.3300229l-.29892.1507175c-11.5252427,21.5318467-2.6200909,41.4225084-2.1956437,51.3197075.2136615,4.9821294-1.8865674,12.397282-2.5756397,18.0570892-1.5740866,12.9290151,2.1639025,33.635416,8.7835479,40.4085543,9.0938747,9.3047388,23.8423486,1.4140344,33.9696522-2.1544675"/>
  <path class="cls-11" d="M821.434687,731.3993245s33.8965843-12.632477,33.4166327-49.3517347c0,0-28.8718794,19.3328406-50.5305419.95045-5.5507083-4.711321-9.4621451-11.0651878-11.5517937-18.0396963l-13.5687735-41.5586995c-5.0344223-17.4504246-11.8965477-33.3325566-19.9640446-45.8532316l-.318137-.5010763c7.3386971-5.2644695,12.0562499-13.9362365,11.8855629-23.6613833-.2767327-15.7177823-13.2189496-28.2349717-28.9077912-27.9578165-13.4128738.2368071-24.357123,9.352297-27.1164225,21.9284241l-.0426718.100342c-28.5081132-3.3144547-57.9757072,13.5218769-66.1399549,28.9224729,10.3202277,9.9130504,4.7095254,46.2820616,29.0848157,46.3091011,3.8569353-15.5570239,20.1376891-13.2339481,20.1093821,1.1103107-.0211246,10.7131458-6.9216969,17.5333388-15.3719721,18.2368947,2.2273812,20.714814,2.5493206,40.0288537,11.935417,68.0187269,1.777849,5.302177,9.3277924,23.2694686,20.3037287,33.8879232,7.1118186,8.3751244,16.1180941,16.0407252,27.3382311,20.8183247,32.8073983,13.9697719,61.3218489,19.7258116,91.1405342-6.9337379,8.7143331-7.7913452,14.3846068-18.4957771,15.6846167-30.1130043.1343527-1.2006713.2125138-2.3124606.2125138-3.2724695,0,0-14.1594183,12.2397701-27.5993315,6.9598797Z"/>
  <ellipse class="cls-39" cx="683.1786341" cy="642.7590553" rx="4.4759624" ry="4.4842432"/>
  <path class="cls-39" d="M914.9472656,801.1628418c5.6615658,32.0205789,6.228164,64.7200905,5.877836,97.153783-.11402,4.4770239-.4912823,9.5205235-1.0824655,13.9529318-6.5058531,56.0465802-49.5575687,105.2908703-104.2948176,119.0618401-4.296596,1.1599512-9.2600731,2.1728634-13.6441096,2.9586305-8.9144356,1.6636-31.8488214,5.8340869-40.9907746,7.5325486-36.4496618,6.5898246-73.1136504,13.5436424-109.5169851,19.6316006,36.1499806-7.4884169,72.835375-14.2655191,109.2040076-21.3050169,11.1775008-2.1159664,33.475593-6.3901443,44.351561-8.452587,3.1597476-.6684124,6.974944-1.4374821,10.0816034-2.3114208,53.9007934-13.6350872,96.2606874-62.1821955,102.5976959-117.3965013.5652446-4.3542458.9563572-9.3401818,1.0477887-13.7349889.3350019-23.071554-.1044498-46.2790959-2.0320881-69.2741688-.7930999-9.2028814-1.8780609-18.3835454-3.5636078-27.4394536-.1059834-.5445272.2531672-1.0724806.7988282-1.173583.5429687-.1010752,1.0644531.253417,1.1655273.7963857h0Z"/>
  <g class="cls-64">
    <path class="cls-50" d="M250.0941715,93.2871306l-5.8141822-2.4264918c-.8144974-.3399225-1.7270541-.3610516-2.5564112-.0591904l-12.7405532,4.63718c-2.0414067.7430109-2.9270546,3.1412346-1.8585479,5.0327156l17.5299596,31.0317071c.8452736,1.4963117,2.6484349,2.162207,4.2633498,1.5744263l52.4989549-19.108048c2.0782164-.7564086,2.9501483-3.2209829,1.8099739-5.1160132l-15.2466745-25.3407794c-.867241-1.4414005-2.63404-2.0664692-4.2147758-1.4911287l-31.1146822,11.3248129c-.709368.2581887-1.859753.231553-2.5564112-.0591904Z"/>
    <path class="cls-14" d="M250.3081723,82.6106927h0c-2.0074923-.8239542-4.2501684-.8692644-6.2893057-.1270795l-11.0033997,4.0049081c-2.0599327.7497539-3.1220426,3.0274549-2.3722887,5.0873876l14.1185141,38.7903168c.7497539,2.0599327,3.0274549,3.1220426,5.0873876,2.3722887l51.8477902-18.8710436c2.0599327-.7497539,3.1220426-3.0274549,2.3722887-5.0873876l-12.0223925-33.0312672c-.7497539-2.0599327-3.0274549-3.1220426-5.0873876-2.3722887l-29.8188994,10.8531868c-2.0391189.7421782-4.8248148-.7950672-6.8323071-1.6190214Z"/>
    <rect class="cls-39" x="252.8512324" y="94.024253" width="31.7536851" height="19.8460532" rx="4" ry="4" transform="translate(-19.3457767 98.1791596) rotate(-19.9999914)"/>
    <g>
      <rect class="cls-29" x="257.8635368" y="100.1440828" width="19.8460532" height="2.4328274" rx="1" ry="1" transform="translate(-18.5178252 97.7011419) rotate(-19.9999914)"/>
      <rect class="cls-29" x="259.9684781" y="106.5762095" width="12.4864805" height="2.4328274" rx="1" ry="1" transform="translate(-20.8127159 97.5504177) rotate(-19.9999914)"/>
    </g>
  </g>
  <g class="cls-52">
    <path class="cls-39" d="M618.3496094,192.3632812h5.734375l7.671875,22.875h-4.578125l-1.703125-5.28125h-8.984375l-1.65625,5.28125h-4.203125l7.71875-22.875ZM624.4902344,206.7851562l-3.484375-10.84375-3.5,10.84375h6.984375Z"/>
    <path class="cls-39" d="M645.6660156,212.6132812c-1.046875,2.03125-3.203125,2.9375-5.515625,2.9375-3.84375,0-5.875-2.53125-5.875-6.328125v-10.71875h4v10.234375c0,2.28125,1.046875,3.6875,3.375,3.6875,2.5,0,4.015625-1.609375,4.015625-4v-9.921875h3.984375v16.734375h-3.984375v-2.625Z"/>
    <path class="cls-39" d="M662.6699219,215.1132812c-.859375.25-1.75.40625-2.75.40625-3.1875,0-5.078125-1.65625-5.078125-4.984375v-9.09375h-2.25v-2.9375h2.25v-3.453125l4-1.734375v5.1875h3.6875v2.9375h-3.6875v8.734375c0,1.3125.5625,2.125,2.03125,2.125.5625,0,1.1875-.125,1.796875-.328125v3.140625Z"/>
    <path class="cls-39" d="M673.5644531,198.1445312c5.078125,0,8.984375,3.5625,8.984375,8.6875,0,5.265625-4.109375,8.71875-9.15625,8.71875-5.09375,0-9.1875-3.53125-9.1875-8.640625,0-5.25,4.328125-8.765625,9.359375-8.765625ZM678.2519531,206.8632812c0-3.078125-1.5625-5.640625-4.84375-5.640625-3.375,0-4.71875,2.6875-4.71875,5.75,0,2.96875,1.578125,5.5,4.8125,5.5,3.34375,0,4.75-2.6875,4.75-5.609375Z"/>
    <path class="cls-39" d="M685.6308594,198.5039062h4v2.5625c1-1.921875,3.03125-2.921875,5.203125-2.921875,2.0625,0,4.078125.90625,4.859375,2.984375,1.265625-1.90625,3.46875-2.984375,5.84375-2.984375,3.84375,0,5.65625,2.8125,5.65625,6.5v10.59375h-3.984375v-10.34375c0-2.09375-1.0625-3.453125-3.1875-3.453125-2.328125,0-3.59375,1.609375-3.59375,3.78125v10.015625h-4v-10.34375c0-2.09375-1.0625-3.453125-3.203125-3.453125-2.3125,0-3.59375,1.609375-3.59375,3.78125v10.015625h-4v-16.734375Z"/>
    <path class="cls-39" d="M725.1660156,213.1914062c-1.265625,1.6875-3.125,2.359375-5.1875,2.359375-3.140625,0-5.609375-1.59375-5.609375-4.875,0-4.640625,4.90625-5.375,8.796875-5.375h1.96875v-.265625c0-2.390625-.5625-3.90625-3.265625-3.90625-1.625,0-3.125.84375-3.71875,2.390625l-3.109375-1.34375c1.125-2.953125,4.25-4.03125,7.234375-4.03125,3.953125,0,6.828125,1.90625,6.828125,6.15625v10.9375h-3.9375v-2.046875ZM723.1191406,207.7539062c-1.84375,0-4.78125.21875-4.78125,2.75,0,1.609375,1.171875,2.203125,2.671875,2.203125,2.03125,0,4.125-1.0625,4.125-3.328125v-1.625h-2.015625Z"/>
    <path class="cls-39" d="M741.9511719,215.1132812c-.859375.25-1.75.40625-2.75.40625-3.1875,0-5.078125-1.65625-5.078125-4.984375v-9.09375h-2.25v-2.9375h2.25v-3.453125l4-1.734375v5.1875h3.6875v2.9375h-3.6875v8.734375c0,1.3125.5625,2.125,2.03125,2.125.5625,0,1.1875-.125,1.796875-.328125v3.140625Z"/>
    <path class="cls-39" d="M747.5644531,191.4257812c1.296875,0,2.328125.953125,2.328125,2.28125,0,1.3125-1,2.265625-2.3125,2.265625-1.296875,0-2.390625-.96875-2.390625-2.28125,0-1.328125,1.078125-2.265625,2.375-2.265625ZM745.5488281,198.5351562h4v16.703125h-4v-16.703125Z"/>
    <path class="cls-39" d="M761.9589844,198.1445312c5.078125,0,8.984375,3.5625,8.984375,8.6875,0,5.265625-4.109375,8.71875-9.15625,8.71875-5.09375,0-9.1875-3.53125-9.1875-8.640625,0-5.25,4.328125-8.765625,9.359375-8.765625ZM766.6464844,206.8632812c0-3.078125-1.5625-5.640625-4.84375-5.640625-3.375,0-4.71875,2.6875-4.71875,5.75,0,2.96875,1.578125,5.5,4.8125,5.5,3.34375,0,4.75-2.6875,4.75-5.609375Z"/>
    <path class="cls-39" d="M774.0253906,198.5039062h4v2.65625c1.078125-2.0625,3.328125-3.015625,5.65625-3.015625,4.015625,0,5.828125,2.828125,5.828125,6.625v10.46875h-4.0625v-10.078125c0-2.34375-1.046875-3.71875-3.421875-3.71875-2.515625,0-4,1.5625-4,3.96875v9.828125h-4v-16.734375Z"/>
  </g>
  <g class="cls-53">
    <path class="cls-39" d="M393.0546875,21.7080078c-1.421875,4.34375-5.515625,6.609375-9.9375,6.609375-7.375,0-11.4375-4.671875-11.4375-11.859375,0-6.5625,4.5625-11.65625,11.3125-11.65625,4.328125,0,8.109375,2.078125,9.828125,6.171875l-3.65625,1.546875c-.96875-2.515625-3.234375-4.265625-5.984375-4.265625-4.84375,0-6.84375,4.140625-6.84375,8.359375,0,4.40625,2.1875,8.15625,6.953125,8.15625,3.015625,0,5.203125-1.828125,6.234375-4.578125l3.53125,1.515625Z"/>
    <path class="cls-39" d="M403.9023438,10.9111328c5.078125,0,8.984375,3.5625,8.984375,8.6875,0,5.265625-4.109375,8.71875-9.15625,8.71875-5.09375,0-9.1875-3.53125-9.1875-8.640625,0-5.25,4.328125-8.765625,9.359375-8.765625ZM408.5898438,19.6298828c0-3.078125-1.5625-5.640625-4.84375-5.640625-3.375,0-4.71875,2.6875-4.71875,5.75,0,2.96875,1.578125,5.5,4.8125,5.5,3.34375,0,4.75-2.6875,4.75-5.609375Z"/>
    <path class="cls-39" d="M416.078125,4.4892578l4-1.734375v25.25h-4V4.4892578Z"/>
    <path class="cls-39" d="M424.8476562,4.4892578l4-1.734375v25.25h-4V4.4892578Z"/>
    <path class="cls-39" d="M443.1005859,25.9580078c-1.265625,1.6875-3.125,2.359375-5.1875,2.359375-3.140625,0-5.609375-1.59375-5.609375-4.875,0-4.640625,4.90625-5.375,8.796875-5.375h1.96875v-.265625c0-2.390625-.5625-3.90625-3.265625-3.90625-1.625,0-3.125.84375-3.71875,2.390625l-3.109375-1.34375c1.125-2.953125,4.25-4.03125,7.234375-4.03125,3.953125,0,6.828125,1.90625,6.828125,6.15625v10.9375h-3.9375v-2.046875ZM441.0537109,20.5205078c-1.84375,0-4.78125.21875-4.78125,2.75,0,1.609375,1.171875,2.203125,2.671875,2.203125,2.03125,0,4.125-1.0625,4.125-3.328125v-1.625h-2.015625Z"/>
    <path class="cls-39" d="M451.4169922,3.6923828h4v10.28125c1.15625-1.921875,3.484375-3.0625,5.703125-3.0625,5.09375,0,7.609375,4.09375,7.609375,8.671875,0,4.71875-2.65625,8.734375-7.484375,8.734375-2.359375,0-4.734375-.953125-5.828125-3v2.6875h-4V3.6923828ZM464.6044922,19.4892578c0-2.84375-1.390625-5.453125-4.6875-5.453125-3.3125,0-4.640625,2.65625-4.640625,5.625,0,3.140625,1.5,5.53125,4.828125,5.53125,3.515625,0,4.5-2.625,4.5-5.703125Z"/>
    <path class="cls-39" d="M479.8896484,10.9111328c5.078125,0,8.984375,3.5625,8.984375,8.6875,0,5.265625-4.109375,8.71875-9.15625,8.71875-5.09375,0-9.1875-3.53125-9.1875-8.640625,0-5.25,4.328125-8.765625,9.359375-8.765625ZM484.5771484,19.6298828c0-3.078125-1.5625-5.640625-4.84375-5.640625-3.375,0-4.71875,2.6875-4.71875,5.75,0,2.96875,1.578125,5.5,4.8125,5.5,3.34375,0,4.75-2.6875,4.75-5.609375Z"/>
    <path class="cls-39" d="M491.9560547,11.2705078h4v3.140625c1.125-2.296875,2.953125-3.390625,5.5-3.390625v3.703125c-3.234375,0-5.5,1.0625-5.5,4.640625v8.640625h-4V11.2705078Z"/>
    <path class="cls-39" d="M513.6787109,25.9580078c-1.265625,1.6875-3.125,2.359375-5.1875,2.359375-3.140625,0-5.609375-1.59375-5.609375-4.875,0-4.640625,4.90625-5.375,8.796875-5.375h1.96875v-.265625c0-2.390625-.5625-3.90625-3.265625-3.90625-1.625,0-3.125.84375-3.71875,2.390625l-3.109375-1.34375c1.125-2.953125,4.25-4.03125,7.234375-4.03125,3.953125,0,6.828125,1.90625,6.828125,6.15625v10.9375h-3.9375v-2.046875ZM511.6318359,20.5205078c-1.84375,0-4.78125.21875-4.78125,2.75,0,1.609375,1.171875,2.203125,2.671875,2.203125,2.03125,0,4.125-1.0625,4.125-3.328125v-1.625h-2.015625Z"/>
    <path class="cls-39" d="M530.4638672,27.8798828c-.859375.25-1.75.40625-2.75.40625-3.1875,0-5.078125-1.65625-5.078125-4.984375v-9.09375h-2.25v-2.9375h2.25v-3.453125l4-1.734375v5.1875h3.6875v2.9375h-3.6875v8.734375c0,1.3125.5625,2.125,2.03125,2.125.5625,0,1.1875-.125,1.796875-.328125v3.140625Z"/>
    <path class="cls-39" d="M536.0761719,4.1923828c1.296875,0,2.328125.953125,2.328125,2.28125,0,1.3125-1,2.265625-2.3125,2.265625-1.296875,0-2.390625-.96875-2.390625-2.28125,0-1.328125,1.078125-2.265625,2.375-2.265625ZM534.0605469,11.3017578h4v16.703125h-4V11.3017578Z"/>
    <path class="cls-39" d="M550.4707031,10.9111328c5.078125,0,8.984375,3.5625,8.984375,8.6875,0,5.265625-4.109375,8.71875-9.15625,8.71875-5.09375,0-9.1875-3.53125-9.1875-8.640625,0-5.25,4.328125-8.765625,9.359375-8.765625ZM555.1582031,19.6298828c0-3.078125-1.5625-5.640625-4.84375-5.640625-3.375,0-4.71875,2.6875-4.71875,5.75,0,2.96875,1.578125,5.5,4.8125,5.5,3.34375,0,4.75-2.6875,4.75-5.609375Z"/>
    <path class="cls-39" d="M562.5371094,11.2705078h4v2.65625c1.078125-2.0625,3.328125-3.015625,5.65625-3.015625,4.015625,0,5.828125,2.828125,5.828125,6.625v10.46875h-4.0625v-10.078125c0-2.34375-1.046875-3.71875-3.421875-3.71875-2.515625,0-4,1.5625-4,3.96875v9.828125h-4V11.2705078Z"/>
  </g>
  <g id="logo" class="cls-63">
    <path class="cls-28" d="M797.5110246,927.1467829c-.5526721,0-1.1078916-.2113875-1.5306744-.6341702l-13.8346425-13.8346445c-.8455635-.8455654-.8455635-2.2157833,0-3.0613487.8455635-.8455654,2.2157833-.8455654,3.0613468,0l13.8346425,13.8346406c.8455635.8455654.8455635,2.2157872,0,3.0613449-.4227827.4227827-.9754548.6341702-1.5306744.6341702l.0000019.0000078Z"/>
    <path class="cls-28" d="M797.5288526,902.0192812c-.5526721,0-1.1053442-.2113914-1.5281269-.6316247l-13.8524706-13.81936c-.8455635-.8430161-.8481109-2.2132378-.0025465-3.0613487.843017-.8455635,2.2157843-.8481109,3.0613478-.0025474l13.8524706,13.8193619c.8455635.8430161.8481109,2.2132378.0025474,3.0613487-.4227827.4227827-.9780003.6367196-1.5332198.6367196l-.0000019-.0025494Z"/>
    <path class="cls-28" d="M797.5110246,914.5906724c-.5526721,0-1.1078916-.2113914-1.5306744-.6341741l-13.8066267-13.8066248c-.8455635-.8455654-.8455635-2.2157833,0-3.0613487.8455635-.8455654,2.2157833-.8455654,3.0613468,0l13.8066267,13.8066287c.8455635.8455654.8455635,2.2157833,0,3.0613487-.4227827.4227827-.9754548.6341741-1.5306744.6341741l.0000019-.0000039Z"/>
    <path class="cls-28" d="M813.640403,911.0174025c-.5526721,0-1.1078936-.2113914-1.5306724-.6341741-.8455654-.8455654-.8455654-2.2157833,0-3.0613487l27.0096407-27.0096446c.8455654-.8455635,2.2157872-.8455635,3.0613449,0,.8455654.8455635.8455654,2.2157833,0,3.0613487l-27.0096446,27.0096446c-.4227827.4227827-.9754548.6341741-1.5306724.6341741h.0000039Z"/>
    <path class="cls-28" d="M813.6429524,898.4587426c-.5526721,0-1.1078936-.2113914-1.5306724-.6341741-.8455654-.8455654-.8455654-2.2157833,0-3.0613487l19.2009149-19.2009149-3.2167085-3.2167075-12.9203122,12.9203132c-.8455654.8455635-2.2157833.8455635-3.0613487,0s-.8455654-2.2157833,0-3.0613468l14.4484392-14.4484402c.8124548-.8124543,2.248894-.8124543,3.0613487,0l6.2780572,6.2780543c.8455654.8455635.8455654,2.2157833,0,3.0613487l-20.7315874,20.7315874c-.4227827.4227827-.9754548.6341741-1.5306724.6341741l.0025416-.0025455Z"/>
    <path class="cls-28" d="M797.5288526,902.0192812c-.5526721,0-1.1078916-.2113914-1.5306744-.6341741-.8455635-.8455654-.8455635-2.2157833,0-3.0613487l16.1166433-16.1166452c.8455654-.8455635,2.2157833-.8455635,3.0613487,0s.8455654,2.2157833,0,3.0613487l-16.1166452,16.1166452c-.4227827.4227827-.9754548.6341741-1.5306724.6341741Z"/>
    <path class="cls-28" d="M797.5110246,914.5906724c-.5526721,0-1.1078916-.2113914-1.5306744-.6341741-.8455635-.8455654-.8455635-2.2157833,0-3.0613487l16.1319259-16.1319259c.8455654-.8455654,2.2157833-.8455654,3.0613487,0,.8455654.8455654.8455654,2.2157833,0,3.0613487l-16.1319259,16.1319259c-.4227827.4227827-.9754548.6341741-1.5306744.6341741Z"/>
    <path class="cls-28" d="M797.5110246,927.1467829c-.5526721,0-1.1078916-.2113875-1.5306744-.6341702-.8455635-.8455654-.8455635-2.2157833,0-3.0613487l16.1293804-16.1293804c.8455654-.8455654,2.2157833-.8455654,3.0613487,0,.8455654.8455654.8455654,2.2157833,0,3.0613487l-16.1293804,16.1293804c-.4227827.4227827-.9754548.6341702-1.5306744.6341702Z"/>
    <path class="cls-28" d="M783.676381,913.3121384c-.5526731,0-1.1078916-.2113914-1.5306734-.6341741l-12.55611-12.5561105c-.4049537-.4049527-.6341726-.9576248-.6341726-1.5306724s.2292191-1.1257197.6341726-1.5306724l12.55611-12.5561105c.8455635-.8455635,2.2157833-.8455635,3.0613468,0,.8455635.8455635.8455635,2.2157833,0,3.0613487l-11.0254362,11.0254381,11.0254362,11.0254381c.8455635.8455654.8455635,2.2157833,0,3.0613487-.4227827.4227827-.9754548.6341741-1.5306744.6341741l.000001-.0000078Z"/>
  </g>
</svg>